<?xml version="1.0" encoding="utf-8"?>
<!-- Generator: Adobe Illustrator 16.0.0, SVG Export Plug-In . SVG Version: 6.00 Build 0)  -->
<!DOCTYPE svg PUBLIC "-//W3C//DTD SVG 1.1//EN" "http://www.w3.org/Graphics/SVG/1.1/DTD/svg11.dtd">
<svg version="1.1" id="Слой_1" xmlns="http://www.w3.org/2000/svg" xmlns:xlink="http://www.w3.org/1999/xlink" x="0px" y="0px"
	 width="482.274px" height="56.28px" viewBox="0 0 482.274 56.28" style="enable-background:new 0 0 482.274 56.28;"
	 xml:space="preserve">
<g>
	<path style="fill:#FFFFFF;" d="M0,56.28l4.44-14.64h3.24c1.12,0,2.16-0.38,3.12-1.14s1.92-1.74,2.88-2.94
		c2.72-3.519,5.08-7.79,7.08-12.81c2-5.019,3.939-11.169,5.82-18.45c0.12-0.48,0.18-0.92,0.18-1.32c0-2.04-0.88-3.06-2.64-3.06
		h-4.56L20.04,0h33.913l-0.48,1.92h-4.56c-1.08,0-1.761,0.536-2.04,1.606l-9.448,34.87c-0.561,2.162,0.222,3.243,2.349,3.243H45.6
		l-3.96,14.64h-1.5c0.48-1.92,0.72-3.479,0.72-4.68c0-0.801-0.01-1.47-0.03-2.01c-0.021-0.54-0.081-1.141-0.18-1.801
		c-0.101-0.659-0.24-1.22-0.42-1.68c-0.18-0.46-0.42-0.92-0.72-1.38c-0.3-0.46-0.67-0.831-1.11-1.11
		c-0.44-0.279-0.97-0.5-1.59-0.659c-0.621-0.161-1.35-0.24-2.19-0.24H15.66c-2.601,0-5.02,0.96-7.26,2.88
		c-1.32,1.2-2.55,2.68-3.69,4.439s-1.97,3.24-2.49,4.44l-0.72,1.8H0z M15.78,39.78c0,0.682,0.58,1.021,1.74,1.021h12.24
		c1.04,0,1.719-0.54,2.04-1.62l9.72-35.64c0.279-1.08-0.141-1.62-1.26-1.62h-5.28c-0.96,0-1.83,0.18-2.61,0.54
		c-0.78,0.36-1.41,0.76-1.89,1.2c-0.48,0.441-0.9,1-1.26,1.68c-0.36,0.681-0.61,1.221-0.75,1.62c-0.141,0.4-0.27,0.84-0.39,1.32
		c-1.881,6.801-3.57,12.18-5.07,16.14s-3.531,8.1-6.09,12.42C16.16,38.121,15.78,39.1,15.78,39.78z"/>
	<path style="fill:#FFFFFF;" d="M53.879,33.241c0-2.4,0.434-4.779,1.302-7.141c0.868-2.359,2.17-4.44,3.906-6.24
		c2.841-3,5.8-4.5,8.879-4.5c1.603,0,2.917,0.402,3.938,1.205c1.021,0.803,1.534,2.088,1.534,3.854c0,3.12-2.028,5.62-6.083,7.498
		c-2.089,1-4.94,1.635-8.553,1.904c-0.563,2.24-0.844,4.58-0.844,7.02c0,1.761,0.401,3.061,1.206,3.9
		c0.803,0.84,1.748,1.26,2.833,1.26s2.15-0.26,3.195-0.78c1.044-0.52,1.887-1.13,2.53-1.83c0.644-0.699,1.255-1.5,1.839-2.399
		c0.582-0.9,0.994-1.61,1.234-2.131c0.241-0.52,0.441-0.999,0.603-1.439l1.26,0.42c-0.964,2.721-2.43,5-4.398,6.84
		c-1.969,1.84-4.158,2.76-6.567,2.76c-2.41,0-4.314-0.99-5.715-2.97C54.579,38.491,53.879,36.081,53.879,33.241z M59.165,28.38
		c2.933-0.2,5.285-0.703,7.054-1.508c1.245-0.563,2.28-1.447,3.104-2.654c0.824-1.206,1.236-2.593,1.236-4.162
		c0-1.125-0.231-1.949-0.693-2.472c-0.462-0.523-1.076-0.785-1.839-0.785c-1.648,0-3.175,0.744-4.582,2.232
		c-1.407,1.488-2.432,3.136-3.075,4.945C59.888,25.345,59.485,26.813,59.165,28.38z"/>
	<path style="fill:#FFFFFF;" d="M77.519,26.667c2.64-7.538,5.559-11.307,8.76-11.307c2.36,0,3.54,2.086,3.54,6.257
		c0,0.673-0.18,1.841-0.54,3.503c-0.36,1.663-0.72,2.87-1.08,3.622l0.24,0.178c0.143-0.25,0.408-0.752,0.796-1.508
		c0.387-0.755,0.708-1.375,0.962-1.859c0.253-0.484,0.61-1.125,1.07-1.926c0.459-0.8,0.883-1.479,1.271-2.034
		c0.387-0.555,0.821-1.173,1.301-1.854c0.48-0.68,0.939-1.26,1.38-1.74c0.44-0.48,0.89-0.939,1.35-1.38
		c0.459-0.439,0.92-0.759,1.38-0.96c0.459-0.2,0.91-0.3,1.35-0.3c3.08,0,4.62,1.927,4.62,5.781c0,1.423-0.549,3.954-1.646,7.591
		l0.207,0.191c0.159-0.236,0.5-0.86,1.02-1.871c0.519-1.01,0.96-1.835,1.32-2.479c0.36-0.642,0.86-1.476,1.5-2.499
		c0.64-1.024,1.26-1.877,1.86-2.56c0.6-0.683,1.26-1.375,1.98-2.078c0.72-0.703,1.46-1.225,2.22-1.566
		c0.759-0.341,1.54-0.512,2.34-0.512c1.2,0,2.15,0.497,2.85,1.491c0.699,0.994,1.05,2.444,1.05,4.351
		c0,0.866-0.133,1.911-0.399,3.131c-0.267,1.222-0.542,2.186-0.828,2.895l-3.84,8.94c-0.623,1.372-0.933,2.529-0.933,3.469
		c0,0.55,0.11,1.002,0.33,1.354c0.22,0.353,0.57,0.528,1.05,0.528c0.72,0,1.459-0.346,2.22-1.039c0.759-0.693,1.46-1.604,2.1-2.733
		c0.64-1.128,1.17-2.158,1.59-3.089c0.42-0.932,0.81-1.893,1.17-2.882l1.2,0.356c-0.72,2.045-1.491,3.869-2.31,5.473
		c-0.82,1.604-1.82,2.978-3,4.121c-1.18,1.141-2.391,1.713-3.63,1.713c-1.08,0-1.99-0.487-2.73-1.461
		c-0.741-0.973-1.11-2.434-1.11-4.381c0-0.867,0.12-1.893,0.36-3.077s0.52-2.171,0.84-2.961l3.839-8.94
		c0.64-1.369,0.961-2.523,0.961-3.462c0-1.252-0.441-1.878-1.32-1.878c-2.461,0-5.023,2.244-7.686,6.731
		c-1.613,2.661-3.045,5.332-4.295,8.013c-1.251,2.682-2.159,4.914-2.724,6.701l-1.119,3.995h-3.916l5-18.534
		c0.047-0.158,0.137-0.478,0.272-0.959c0.135-0.481,0.25-0.892,0.344-1.233c0.094-0.341,0.182-0.746,0.262-1.212
		s0.121-0.875,0.121-1.225c0-1.517-0.724-2.275-2.169-2.275c-1.176-0.253-2.611,1.124-4.307,4.131
		c-1.696,3.008-3.438,6.107-5.227,9.296c-1.789,3.189-2.861,5.87-3.216,8.041l-1.204,3.972h-3.917l5.04-18.54
		c0.6-2.357,0.9-4.027,0.9-5.01c0-1.1-0.38-1.65-1.14-1.65c-2,0-4.161,3.168-6.48,9.503L77.519,26.667z"/>
	<path style="fill:#FFFFFF;" d="M124.318,38.941c0-0.976,0.27-1.84,0.81-2.592s1.269-1.129,2.19-1.129c0.8,0,1.389,0.226,1.77,0.673
		c0.379,0.448,0.57,0.979,0.57,1.59c0,0.407-0.12,0.835-0.36,1.283c-0.24,0.447-0.521,0.734-0.84,0.855
		c-0.641,0.367-0.96,0.755-0.96,1.162c0,0.812,0.459,1.217,1.38,1.217c1.04,0,1.879-0.399,2.52-1.2c0.639-0.8,1.239-1.88,1.8-3.24
		l1.321-3.36c0.622-1.854,1.445-3.007,2.471-3.461l0.061-0.277c-0.538-0.078-1.114-0.266-1.728-0.563
		c-0.614-0.297-1.199-0.701-1.756-1.215c-0.557-0.514-1.018-1.166-1.382-1.956c-0.365-0.791-0.547-1.66-0.547-2.608
		c0-2.4,0.922-4.459,2.768-6.18c1.845-1.72,4.24-2.58,7.186-2.58c2.527,0,4.33,1,5.408,3l0.312,0.063l0.647-2.343h4.045
		l-5.059,18.362c-0.765,2.604-1.146,4.415-1.146,5.432c0,1.098,0.379,1.646,1.14,1.646c0.799,0,1.62-0.511,2.46-1.535
		c0.84-1.021,1.58-2.229,2.22-3.622c0.64-1.392,1.239-2.946,1.8-4.665l1.2,0.367c-0.36,1.05-0.7,1.957-1.02,2.723
		c-0.32,0.768-0.771,1.734-1.35,2.904c-0.58,1.17-1.17,2.139-1.77,2.904c-0.6,0.768-1.32,1.434-2.16,1.998
		c-0.84,0.563-1.68,0.846-2.52,0.846c-2.32,0-3.48-2.031-3.48-6.094c0-0.807,0.26-2.015,0.78-3.626l0.894-3.241l-0.293-0.184
		c-0.885,0.443-2.213,0.665-3.983,0.665c-0.73,0-1.422,0.31-2.075,0.926c-0.653,0.617-1.172,1.481-1.556,2.593l-1.261,3.539
		c-1.348,3.615-3.41,5.422-6.185,5.422c-1.36,0-2.42-0.424-3.18-1.271C124.698,41.32,124.318,40.245,124.318,38.941z M135.718,24.12
		c0,1.601,0.424,2.901,1.271,3.9c0.847,1,2.039,1.5,3.573,1.5c2.446,0,3.901-0.736,4.365-2.211l0.967-3.735
		c0.319-1.078,0.48-1.858,0.48-2.338c0-1.198-0.495-2.237-1.485-3.116c-0.99-0.879-2.17-1.319-3.539-1.319
		c-1.615,0-2.958,0.72-4.027,2.16C136.252,20.4,135.718,22.121,135.718,24.12z"/>
	<path style="fill:#FFFFFF;" d="M156.838,38.868c0-1.311,0.3-2.416,0.9-3.316s1.479-1.352,2.64-1.352c0.759,0,1.32,0.225,1.68,0.673
		c0.36,0.448,0.54,0.978,0.54,1.588c0,0.938-0.54,1.813-1.62,2.627c-0.641,0.407-0.96,0.937-0.96,1.588
		c0,0.368,0.12,0.663,0.36,0.884c0.24,0.221,0.47,0.35,0.69,0.386c0.219,0.038,0.429,0.056,0.63,0.056c0.44,0,0.86-0.1,1.26-0.301
		c0.399-0.199,0.78-0.529,1.14-0.989c0.36-0.46,0.669-0.9,0.93-1.32c0.26-0.42,0.53-0.989,0.81-1.71
		c0.279-0.72,0.492-1.299,0.638-1.737c0.146-0.438,0.354-1.058,0.622-1.862l4.969-14.7c0.167-0.44,0.251-0.819,0.251-1.14
		c0-0.48-0.347-0.72-1.041-0.72h-3.121l0.428-1.44h8.894v20.04l10.5-20.04h4.038l-5.049,18.331
		c-0.446,2.615-0.668,4.434-0.668,5.455c0,1.104,0.379,1.654,1.14,1.654c0.759,0,1.56-0.502,2.4-1.508
		c0.84-1.004,1.59-2.19,2.25-3.557c0.66-1.367,1.269-2.895,1.83-4.583l1.2,0.36c-0.36,1.033-0.7,1.928-1.02,2.683
		c-0.32,0.756-0.78,1.709-1.38,2.861c-0.6,1.153-1.19,2.106-1.77,2.862c-0.58,0.756-1.281,1.41-2.1,1.967
		c-0.82,0.556-1.67,0.834-2.55,0.834c-2.32,0-3.48-2.006-3.48-6.021c0-0.821,0.14-2.055,0.42-3.699l2.891-10.753l-0.39-0.028
		L174.867,43.56h-1.469V21.018l0.084,0.17l-4.308,13.886c-0.291,0.969-0.561,1.799-0.808,2.488
		c-0.248,0.691-0.602,1.431-1.063,2.219c-0.461,0.787-0.945,1.421-1.45,1.9c-0.505,0.48-1.109,0.894-1.812,1.24
		c-0.703,0.344-1.493,0.518-2.372,0.518c-1.571,0-2.769-0.489-3.594-1.465C157.25,40.999,156.838,39.961,156.838,38.868z"/>
	<path style="fill:#FFFFFF;" d="M216.297,33.241c0-2.4,0.434-4.779,1.302-7.141c0.868-2.359,2.17-4.44,3.906-6.24
		c1.381-1.479,2.772-2.6,4.173-3.36c1.401-0.759,2.97-1.14,4.707-1.14c0.721,0,1.402,0.1,2.043,0.3
		c0.641,0.201,1.243,0.521,1.805,0.96c0.561,0.441,1.022,1.071,1.383,1.89c0.36,0.82,0.541,1.77,0.541,2.85c0,1.2-0.34,2.2-1.02,3
		c-0.681,0.8-1.48,1.2-2.4,1.2c-0.76,0-1.341-0.24-1.74-0.72c-0.4-0.48-0.6-1-0.6-1.56c0-1.12,0.639-2.16,1.92-3.12
		c0.439-0.36,0.66-0.879,0.66-1.56c0-0.399-0.221-0.8-0.664-1.2c-0.442-0.399-1.166-0.6-2.169-0.6c-3.135,0-5.869,3.48-8.199,10.44
		c-0.442,1.281-0.814,2.92-1.116,4.92s-0.452,3.561-0.452,4.68c0,1.761,0.401,3.061,1.206,3.9c0.803,0.84,1.748,1.26,2.833,1.26
		s2.15-0.26,3.195-0.78c1.044-0.52,1.887-1.13,2.53-1.83c0.644-0.699,1.255-1.5,1.839-2.399c0.582-0.9,0.994-1.61,1.234-2.131
		c0.241-0.52,0.441-0.999,0.603-1.439l1.26,0.42c-0.964,2.721-2.43,5-4.398,6.84c-1.969,1.84-4.158,2.76-6.567,2.76
		c-2.41,0-4.314-0.99-5.715-2.97C216.997,38.491,216.297,36.081,216.297,33.241z"/>
	<path style="fill:#FFFFFF;" d="M256.017,38.868c0-1.311,0.3-2.416,0.899-3.316c0.601-0.9,1.48-1.352,2.641-1.352
		c0.76,0,1.32,0.225,1.68,0.673c0.36,0.448,0.54,0.978,0.54,1.588c0,0.938-0.54,1.813-1.62,2.627
		c-0.641,0.407-0.96,0.937-0.96,1.588c0,0.368,0.12,0.663,0.36,0.884s0.47,0.35,0.689,0.386c0.22,0.038,0.43,0.056,0.631,0.056
		c0.439,0,0.859-0.099,1.26-0.297c0.398-0.196,0.779-0.523,1.14-0.977s0.669-0.888,0.931-1.303c0.26-0.414,0.529-0.977,0.81-1.688
		c0.279-0.71,0.489-1.281,0.63-1.716c0.14-0.435,0.35-1.053,0.63-1.857l4.74-14.774c0.159-0.442,0.239-0.824,0.239-1.146
		c0-0.482-0.34-0.724-1.02-0.724h-3.061l0.421-1.44h14.819l-5.1,18.36c-0.641,2.604-0.96,4.416-0.96,5.432
		c0,1.1,0.38,1.648,1.14,1.648c0.801,0,1.621-0.502,2.461-1.508c0.84-1.004,1.579-2.19,2.219-3.557
		c0.641-1.367,1.24-2.895,1.801-4.583l1.199,0.36c-0.359,1.033-0.699,1.928-1.02,2.683c-0.32,0.756-0.771,1.709-1.35,2.861
		c-0.58,1.153-1.17,2.106-1.77,2.862c-0.601,0.756-1.32,1.41-2.16,1.967c-0.84,0.556-1.681,0.834-2.521,0.834
		c-2.32,0-3.479-2.006-3.479-6.021c0-0.818,0.217-2.046,0.65-3.685l3.803-13.914c0.158-0.564,0.24-0.988,0.24-1.271
		c0-0.363-0.105-0.625-0.313-0.787c-0.209-0.162-0.588-0.243-1.141-0.243c-1.161,0-1.951,0.141-2.371,0.422s-0.77,0.885-1.05,1.81
		l-4.92,15.256c-0.32,1.005-0.601,1.834-0.84,2.484c-0.24,0.651-0.581,1.392-1.021,2.22c-0.439,0.829-0.88,1.479-1.319,1.953
		c-0.44,0.475-0.981,0.889-1.62,1.243c-0.641,0.354-1.36,0.532-2.16,0.532c-1.561,0-2.75-0.489-3.57-1.465
		C256.426,40.999,256.017,39.961,256.017,38.868z"/>
	<path style="fill:#FFFFFF;" d="M288.776,26.624c0.36-1.039,0.699-1.937,1.021-2.696c0.319-0.759,0.77-1.717,1.35-2.875
		c0.579-1.158,1.171-2.116,1.771-2.875c0.6-0.759,1.32-1.418,2.16-1.977s1.68-0.839,2.52-0.839c2.319,0,3.48,2.016,3.48,6.045
		c0,0.813-0.219,2.034-0.654,3.661l-0.797,3.134h5.014c0.949-3.519,2.708-6.54,5.279-9.06c2.57-2.52,5.377-3.78,8.422-3.78
		c0.933,0,1.855,0.22,2.77,0.659c0.913,0.439,1.738,1.078,2.478,1.916c0.739,0.838,1.331,1.945,1.778,3.322
		c0.446,1.377,0.67,2.923,0.67,4.639c0,2.083-0.385,4.187-1.153,6.309c-0.771,2.124-1.786,4.007-3.048,5.648
		c-1.264,1.643-2.781,2.984-4.557,4.026c-1.776,1.04-3.592,1.562-5.445,1.562c-2.061,0-3.879-0.92-5.453-2.76
		c-1.576-1.84-2.363-4.439-2.363-7.8c0-0.88,0.094-1.88,0.283-3h-5.198l-3.528,12.84h-3.916l4.979-18.36
		c0.64-2.604,0.96-4.415,0.96-5.432c0-1.099-0.381-1.648-1.141-1.648c-0.8,0-1.619,0.506-2.459,1.517
		c-0.84,1.012-1.581,2.205-2.221,3.58c-0.641,1.375-1.24,2.912-1.8,4.611L288.776,26.624z M308.096,36.48
		c0,1.641,0.342,2.97,1.023,3.99c0.683,1.021,1.667,1.53,2.953,1.53c0.883,0,1.688-0.201,2.41-0.602
		c0.725-0.402,1.377-0.982,1.96-1.746c0.582-0.762,1.063-1.494,1.445-2.197s0.794-1.556,1.235-2.559
		c0.844-1.926,1.527-4.043,2.049-6.351c0.522-2.309,0.783-4.406,0.783-6.292c0-1.62-0.32-2.934-0.964-3.942
		s-1.606-1.512-2.893-1.512c-0.884,0-1.698,0.201-2.44,0.6c-0.743,0.4-1.406,0.97-1.988,1.71c-0.583,0.741-1.075,1.48-1.477,2.22
		c-0.402,0.741-0.824,1.59-1.266,2.55c-0.844,1.92-1.527,4.03-2.049,6.33C308.357,32.51,308.096,34.6,308.096,36.48z"/>
	<path style="fill:#FFFFFF;" d="M331.737,32.958c0-2.005,0.275-4.301,0.826-6.888c0.551-2.586,1.262-4.942,2.127-7.068
		c1.575-3.93,3.801-7.299,6.678-10.106c2.875-2.807,6.4-4.732,10.575-5.775c1.857-0.439,3.233-0.859,4.125-1.26
		c0.893-0.399,1.46-0.9,1.704-1.5c0.202-0.48,0.305-0.74,0.305-0.78l1.199,0.36c-0.669,2.88-1.868,4.9-3.599,6.06
		c-1.337,0.921-3.206,1.641-5.604,2.16c-1.871,0.4-3.591,0.98-5.157,1.742c-1.566,0.762-2.902,1.633-4.007,2.615
		c-1.105,0.982-2.029,1.983-2.771,3.005c-0.744,1.022-1.316,2.093-1.717,3.215l-0.784,2.103l0.239,0.181
		c1.165-1.605,2.672-2.95,4.521-4.034c1.848-1.084,3.776-1.625,5.785-1.625c2.02,0,3.788,0.924,5.303,2.771
		c1.515,1.848,2.272,4.459,2.272,7.832c0,2.076-0.385,4.17-1.154,6.285s-1.785,4.01-3.048,5.686s-2.781,3.033-4.558,4.07
		c-1.775,1.037-3.59,1.556-5.444,1.556c-0.935,0-1.866-0.218-2.8-0.655c-0.935-0.437-1.77-1.082-2.508-1.936
		c-0.739-0.854-1.342-1.976-1.809-3.365C331.969,36.213,331.737,34.665,331.737,32.958z M335.817,36.574
		c0,1.648,0.34,2.984,1.023,4.009c0.682,1.025,1.666,1.537,2.953,1.537c0.883,0,1.686-0.2,2.41-0.602
		c0.724-0.402,1.376-0.984,1.959-1.749c0.582-0.763,1.064-1.497,1.445-2.2c0.382-0.703,0.793-1.558,1.236-2.563
		c0.844-1.93,1.525-4.049,2.049-6.359c0.521-2.312,0.783-4.412,0.783-6.3c0-1.647-0.322-2.983-0.965-4.009
		c-0.643-1.025-1.607-1.538-2.893-1.538c-0.884,0-1.697,0.202-2.439,0.603c-0.744,0.402-1.406,0.975-1.988,1.719
		c-0.584,0.743-1.076,1.487-1.477,2.23c-0.402,0.745-0.824,1.599-1.266,2.563c-0.844,1.929-1.527,4.05-2.05,6.361
		C336.077,32.586,335.817,34.686,335.817,36.574z"/>
	<path style="fill:#FFFFFF;" d="M393.055,33.241c0-2.08,0.395-4.19,1.186-6.331c0.789-2.139,1.816-4.059,3.08-5.76
		c1.264-1.7,2.795-3.09,4.592-4.17c1.797-1.08,3.625-1.62,5.481-1.62c1.688,0,3.051,0.52,4.087,1.56
		c1.035,1.041,1.555,2.26,1.555,3.66c0,0.921-0.232,1.761-0.697,2.52c-0.465,0.76-1.064,1.391-1.799,1.89
		c-0.735,0.5-1.471,0.91-2.206,1.23c-0.735,0.321-1.451,0.561-2.147,0.72l-0.06,0.3c1.421,0,2.708,0.561,3.86,1.68
		c1.152,1.12,1.729,2.58,1.729,4.38c0,2.96-1.102,5.391-3.301,7.29c-2.201,1.9-4.794,2.85-7.779,2.85c-2.333,0-4.18-0.83-5.54-2.49
		C393.735,39.292,393.055,36.72,393.055,33.241z M397.135,36.241c0,2,0.321,3.46,0.965,4.379c0.644,0.922,1.609,1.381,2.897,1.381
		c1.327,0,2.504-0.459,3.53-1.381c1.025-0.919,1.799-2.019,2.322-3.299s0.785-2.6,0.785-3.961c0-1.439-0.383-2.58-1.146-3.42
		c-0.766-0.84-1.831-1.26-3.198-1.26c-2.133,0-3.903,0.461-5.311,1.38C397.417,32.5,397.135,34.56,397.135,36.241z M398.462,28.14
		l3.707-1.08c1.938-0.519,3.554-1.37,4.847-2.55c1.292-1.179,1.939-2.67,1.939-4.47c0-1.04-0.184-1.839-0.551-2.4
		c-0.367-0.56-0.824-0.84-1.373-0.84c-1.047,0-2.043,0.351-2.988,1.05c-0.945,0.7-1.881,1.871-2.805,3.51
		c-0.523,0.88-1.057,1.98-1.6,3.3C399.095,25.98,398.704,27.141,398.462,28.14z"/>
	<path style="fill:#FFFFFF;" d="M417.655,26.64c1.119-3.2,2.449-5.88,3.99-8.04c1.539-2.16,3.209-3.24,5.01-3.24
		c2.359,0,3.54,1.724,3.54,5.171c0,1.13-0.405,2.648-1.214,4.558l-0.611,1.675L428.754,27c1.52-1.16,3.061-1.74,4.62-1.74
		c2.084,0,3.705,0.57,4.862,1.71c1.158,1.14,1.738,2.71,1.738,4.71s-0.569,3.91-1.705,5.73c-1.137,1.82-2.617,3.279-4.439,4.379
		c-1.822,1.101-3.676,1.65-5.557,1.65c-1.959,0-3.561-0.7-4.799-2.1c-1.24-1.4-1.86-3-1.86-4.801c0-2.199,0.42-4.359,1.26-6.479
		l2.88-7.44c0.8-1.721,1.2-3.032,1.2-3.932c0-0.313-0.011-0.548-0.03-0.704c-0.021-0.156-0.11-0.313-0.27-0.469
		c-0.16-0.157-0.381-0.235-0.66-0.235c-0.76,0-1.521,0.346-2.279,1.038c-0.762,0.692-1.461,1.601-2.101,2.727
		c-0.641,1.126-1.17,2.163-1.591,3.111c-0.42,0.949-0.809,1.896-1.17,2.844L417.655,26.64z M424.854,38.377
		c0,1.127,0.35,2.014,1.051,2.657c0.699,0.644,1.67,0.966,2.91,0.966c1.719,0,3.33-1.13,4.83-3.391c1.5-2.259,2.25-4.809,2.25-7.649
		c0-2.84-1.061-4.26-3.18-4.26c-0.938,0-1.904,0.307-2.902,0.92c-0.998,0.613-1.883,1.434-2.656,2.461l-1.467,4.01
		C425.133,36.024,424.854,37.453,424.854,38.377z"/>
	<path style="fill:#FFFFFF;" d="M445.014,26.624c0.359-1.039,0.699-1.937,1.02-2.696c0.32-0.759,0.77-1.717,1.35-2.875
		c0.58-1.158,1.171-2.116,1.771-2.875c0.601-0.759,1.32-1.418,2.16-1.977s1.681-0.839,2.521-0.839c2.318,0,3.479,2.016,3.479,6.045
		c0,0.813-0.218,2.034-0.653,3.661l-0.798,3.134h5.015c0.949-3.519,2.707-6.54,5.278-9.06c2.57-2.52,5.378-3.78,8.423-3.78
		c0.932,0,1.855,0.22,2.77,0.659c0.912,0.439,1.738,1.078,2.477,1.916c0.739,0.838,1.332,1.945,1.779,3.322
		c0.445,1.377,0.67,2.923,0.67,4.639c0,2.083-0.385,4.187-1.154,6.309c-0.77,2.124-1.785,4.007-3.047,5.648
		c-1.264,1.643-2.782,2.984-4.558,4.026c-1.776,1.04-3.591,1.562-5.445,1.562c-2.061,0-3.878-0.92-5.453-2.76
		s-2.362-4.439-2.362-7.8c0-0.88,0.094-1.88,0.283-3h-5.199l-3.528,12.84h-3.916l4.979-18.36c0.64-2.604,0.961-4.415,0.961-5.432
		c0-1.099-0.381-1.648-1.141-1.648c-0.801,0-1.619,0.506-2.46,1.517c-0.84,1.012-1.581,2.205-2.22,3.58
		c-0.641,1.375-1.24,2.912-1.801,4.611L445.014,26.624z M464.334,36.48c0,1.641,0.341,2.97,1.023,3.99
		c0.682,1.021,1.666,1.53,2.953,1.53c0.883,0,1.687-0.201,2.41-0.602c0.724-0.402,1.377-0.982,1.959-1.746
		c0.582-0.762,1.064-1.494,1.445-2.197c0.383-0.703,0.794-1.556,1.236-2.559c0.844-1.926,1.526-4.043,2.049-6.351
		c0.521-2.309,0.783-4.406,0.783-6.292c0-1.62-0.321-2.934-0.965-3.942c-0.643-1.008-1.606-1.512-2.893-1.512
		c-0.883,0-1.697,0.201-2.439,0.6c-0.744,0.4-1.406,0.97-1.988,1.71c-0.584,0.741-1.076,1.48-1.477,2.22
		c-0.402,0.741-0.824,1.59-1.266,2.55c-0.844,1.92-1.527,4.03-2.05,6.33S464.334,34.6,464.334,36.48z"/>
</g>
<path style="fill:none;stroke:#FDC5FF;stroke-miterlimit:10;" d="M356.334,23.185l6.11-9.783c0,0-5.854,14.371-5.635,15.117
	s7.147-15.985,7.761-16.139c0.615-0.154-8.197,17.546-6.537,19.427s7.159-20.82,9.242-19.428c2.084,1.392-10.29,20.864-7.979,21.711
	c2.313,0.848,9.295-22.776,10.137-21.214s-11.324,24.228-7.74,24.395c3.582,0.167,6.5-26.088,9.1-23.557
	c2.598,2.531-9.225,24.53-7.537,25.335s8.664-24.44,9.194-23.866s-8.556,24.603-8.059,25.194c0.497,0.592,8.431-24.868,8.981-24.156
	c0.552,0.712-8.699,24.469-7.863,25.499c0.835,1.029,8.754-24.387,9.18-23.668c0.427,0.719-8.723,25.339-7.359,25.945
	s8.035-25.402,8.536-25.688s-8.899,26.217-7.595,26.924c1.305,0.705,8.177-27.331,9.379-27.879
	c1.201-0.548-10.314,29.927-8.625,28.917c1.691-1.01,8.977-29.268,10.75-29.834s-9.984,30.11-8.242,28.347
	c1.742-1.763,7.781-28.514,10.016-28.913c2.235-0.399-8.182,28.411-6.603,26.989s7.251-27.396,8.838-27.388
	s-8.632,27.78-6.695,26.248s6.21-28.281,8.282-26.24s-7.928,26.791-5.678,24.958c2.25-1.834,5.29-26.817,6.854-24.742
	c1.563,2.075-5.953,24.521-4.045,23.257s3.371-24.615,5.342-22.727s-4.367,22.289-2.936,21.083s3.087-21.482,4.063-20.232
	c0.977,1.25-1.387,20.613-2.631,19.027c-1.243-1.586,2.77-18.75,3.854-17.333c1.082,1.417-0.695,17.267-1.973,15.341
	c-1.277-1.924,2.524-15.109,2.832-13.267c0.307,1.842-0.092,11.772-0.935,10.391s1.331-9.956,1.452-8.127"/>
</svg>
