<?xml version="1.0" encoding="utf-8"?>
<!-- Generator: Adobe Illustrator 16.0.0, SVG Export Plug-In . SVG Version: 6.00 Build 0)  -->
<!DOCTYPE svg PUBLIC "-//W3C//DTD SVG 1.1//EN" "http://www.w3.org/Graphics/SVG/1.1/DTD/svg11.dtd">
<svg version="1.1" id="Слой_1" xmlns="http://www.w3.org/2000/svg" xmlns:xlink="http://www.w3.org/1999/xlink" x="0px" y="0px"
	 width="571.027px" height="54.509px" viewBox="0 0 571.027 54.509" style="enable-background:new 0 0 571.027 54.509;"
	 xml:space="preserve">
<style type="text/css">
<![CDATA[
	.st0{fill:none;stroke:#FDC5FF;stroke-miterlimit:10;}
	.st1{fill:#F2F0ED;}
]]>
</style>
<g>
	<path class="st1" d="M36.182,49.733c0,1.582,0.059,2.822,0.176,3.721H34.98c-0.293-2.617-0.659-4.57-1.099-5.859
		s-1.182-2.236-2.227-2.842c-1.045-0.605-2.612-0.908-4.702-0.908H9.844c-2.09,0-3.662,0.303-4.717,0.908s-1.802,1.553-2.241,2.842
		s-0.806,3.242-1.099,5.859H0.41c0.117-0.898,0.176-2.139,0.176-3.721c0-2.109-0.137-4.473-0.41-7.09H1.26
		c2.793,0,4.946-1.615,6.46-4.848c1.513-3.232,2.559-7.109,3.135-11.631c0.576-4.521,1.079-10.366,1.509-17.534l0.059-0.908
		c0.019-0.293,0.029-0.693,0.029-1.201c0-1.074-0.137-1.879-0.41-2.417c-0.274-0.537-0.752-0.913-1.436-1.128
		c-0.684-0.215-1.699-0.352-3.047-0.41V1.365c1.68,0.117,3.74,0.176,6.182,0.176c-0.02,0,0.879-0.029,2.695-0.088
		c0.839-0.059,1.699-0.088,2.578-0.088c1.406,0,2.754,0.029,4.043,0.088c2.754,0.059,4.267,0.088,4.541,0.088
		c3.066,0,5.449-0.059,7.148-0.176v1.201c-1.446,0.059-2.495,0.215-3.149,0.469c-0.655,0.254-1.104,0.723-1.348,1.406
		c-0.245,0.684-0.366,1.777-0.366,3.281v29.765c0,1.505,0.122,2.613,0.366,3.326c0.244,0.713,0.703,1.196,1.377,1.449
		c0.674,0.254,1.714,0.381,3.12,0.381h1.846C36.318,45.261,36.182,47.624,36.182,49.733z M23.921,4.397
		c-0.245-0.713-0.699-1.196-1.362-1.45c-0.664-0.253-1.699-0.381-3.105-0.381h-0.791c-1.426,0-2.446,0.132-3.062,0.396
		s-1.03,0.723-1.245,1.377c-0.215,0.655-0.4,1.783-0.557,3.384c-0.137,1.465-0.293,3.477-0.469,6.035
		c-0.371,5.176-0.776,9.488-1.216,12.935s-1.201,6.66-2.285,9.639s-2.593,5.082-4.526,6.313h14.15c1.406,0,2.441-0.127,3.105-0.381
		c0.664-0.253,1.118-0.736,1.362-1.449c0.244-0.713,0.366-1.821,0.366-3.326V7.722C24.287,6.218,24.165,5.11,23.921,4.397z"/>
	<path class="st1" d="M70.166,43.845c-2.598-0.117-6.983-0.176-13.154-0.176c-7.383,0-12.979,0.059-16.787,0.176v-1.201
		c1.445-0.059,2.495-0.215,3.149-0.469c0.654-0.253,1.103-0.722,1.348-1.406c0.244-0.684,0.366-1.776,0.366-3.281V13.728
		c0-1.504-0.122-2.597-0.366-3.281c-0.245-0.684-0.693-1.152-1.348-1.406c-0.655-0.253-1.704-0.41-3.149-0.469V7.371
		c3.809,0.117,9.404,0.176,16.787,0.176c5.605,0,9.59-0.059,11.953-0.176c-0.274,2.402-0.41,4.561-0.41,6.475
		c0,1.563,0.059,2.803,0.176,3.721h-1.377c-0.215-2.227-0.591-3.974-1.128-5.244c-0.538-1.27-1.309-2.183-2.314-2.739
		c-1.006-0.557-2.339-0.835-3.999-0.835h-4.395c-1.446,0-2.495,0.113-3.149,0.337c-0.655,0.225-1.104,0.679-1.348,1.362
		c-0.245,0.684-0.366,1.777-0.366,3.281V24.89h4.98c1.27,0,2.251-0.327,2.944-0.981c0.693-0.654,1.157-1.377,1.392-2.168
		s0.449-1.782,0.645-2.974h1.377c-0.137,1.563-0.205,3.047-0.205,4.453l0.029,2.256c0,1.601,0.127,3.848,0.381,6.738h-1.406
		c-0.157-1.23-0.376-2.274-0.659-3.135c-0.283-0.859-0.781-1.571-1.494-2.139c-0.713-0.566-1.714-0.849-3.003-0.849h-4.98v11.396
		c0,1.505,0.122,2.594,0.366,3.268c0.244,0.674,0.693,1.127,1.348,1.361c0.654,0.234,1.704,0.352,3.149,0.352h4.395
		c1.973,0,3.545-0.316,4.717-0.951s2.061-1.67,2.666-3.105c0.605-1.436,1.025-3.424,1.26-5.963h1.377
		c-0.117,1.074-0.176,2.51-0.176,4.307C69.756,38.864,69.892,41.228,70.166,43.845z"/>
	<path class="st1" d="M108.809,14.431c0,2.07,0.059,3.711,0.176,4.922h-1.377c-0.234-2.793-0.611-4.926-1.128-6.401
		c-0.518-1.475-1.358-2.544-2.52-3.208c-1.162-0.664-2.827-0.996-4.995-0.996h-3.838v28.125c0,1.66,0.156,2.877,0.469,3.648
		c0.312,0.771,0.879,1.303,1.699,1.596s2.119,0.469,3.896,0.527v1.201c-2.07-0.117-5.01-0.176-8.818-0.176
		c-3.984,0-6.943,0.059-8.877,0.176v-1.201c1.777-0.059,3.076-0.234,3.896-0.527s1.387-0.824,1.699-1.596
		c0.312-0.771,0.469-1.988,0.469-3.648V8.748h-3.838c-2.168,0-3.828,0.333-4.98,0.996c-1.153,0.664-1.992,1.739-2.52,3.223
		c-0.527,1.484-0.908,3.614-1.143,6.387h-1.377c0.117-1.27,0.176-2.91,0.176-4.922c0-2.09-0.137-4.443-0.41-7.061
		c3.32,0.117,8.955,0.176,16.904,0.176c7.929,0,13.554-0.059,16.875-0.176C108.955,9.93,108.809,12.283,108.809,14.431z"/>
	<path class="st1" d="M143.115,9.026c-0.645,0.245-1.089,0.708-1.333,1.392c-0.245,0.684-0.366,1.787-0.366,3.311v23.759
		c0,1.505,0.122,2.598,0.366,3.281c0.244,0.685,0.693,1.153,1.348,1.406c0.654,0.254,1.704,0.41,3.149,0.469v1.201
		c-1.68-0.117-4.238-0.176-7.676-0.176c-3.204,0-5.742,0.059-7.617,0.176v-1.201c1.445-0.059,2.495-0.215,3.149-0.469
		c0.654-0.253,1.103-0.722,1.348-1.406c0.244-0.684,0.366-1.776,0.366-3.281V27.292h-4.014c-1.446,0-2.637,0.143-3.574,0.426
		s-1.724,0.82-2.358,1.611c-0.635,0.791-1.138,1.947-1.509,3.471l-1.816,7.324c-0.762,3.047-2.823,4.57-6.182,4.57
		c-1.367,0-2.534-0.288-3.501-0.863c-0.967-0.576-1.831-1.411-2.593-2.506l0.82-0.791c1.211,1.367,2.314,2.051,3.311,2.051
		c0.605,0,1.094-0.287,1.465-0.863c0.371-0.576,0.722-1.568,1.055-2.975l1.26-5.273c0.352-1.445,0.879-2.602,1.582-3.471
		s1.553-1.523,2.549-1.963s2.197-0.767,3.604-0.982c0.508-0.077,0.889-0.127,1.143-0.146c-2.578-0.37-4.644-1.079-6.196-2.124
		c-1.553-1.044-2.647-2.227-3.281-3.545c-0.635-1.318-0.952-2.641-0.952-3.97c0-2.051,0.532-3.813,1.597-5.288
		c1.064-1.475,2.632-2.603,4.702-3.384c2.07-0.781,4.589-1.172,7.559-1.172l2.373,0.029c3.34,0.059,5.361,0.088,6.064,0.088
		c3.203,0,5.644-0.059,7.324-0.176v1.201C144.814,8.63,143.76,8.782,143.115,9.026z M123.413,21.931
		c0.517,1.27,1.45,2.281,2.798,3.032c1.348,0.752,3.223,1.128,5.625,1.128h4.014V13.728c0-1.425-0.103-2.5-0.308-3.223
		c-0.205-0.722-0.576-1.226-1.113-1.509c-0.538-0.283-1.343-0.425-2.417-0.425c-3.321,0-5.713,0.732-7.178,2.197
		s-2.197,3.652-2.197,6.563C122.637,19.129,122.896,20.662,123.413,21.931z"/>
	<path class="st1" d="M194.165,9.041c-0.655,0.254-1.104,0.723-1.348,1.406c-0.245,0.684-0.366,1.777-0.366,3.281v23.759
		c0,1.505,0.122,2.598,0.366,3.281c0.244,0.685,0.693,1.153,1.348,1.406c0.654,0.254,1.704,0.41,3.149,0.469v1.201
		c-1.875-0.117-4.414-0.176-7.617-0.176c-3.438,0-5.996,0.059-7.676,0.176v-1.201c1.445-0.059,2.49-0.215,3.135-0.469
		c0.645-0.253,1.088-0.722,1.333-1.406c0.244-0.684,0.366-1.776,0.366-3.281V11.15l-14.443,32.988h-0.967l-13.916-32.929v25.664
		c0,1.543,0.136,2.706,0.41,3.486c0.273,0.781,0.786,1.344,1.538,1.686c0.751,0.342,1.919,0.541,3.501,0.6v1.201
		c-1.426-0.117-3.467-0.176-6.123-0.176c-2.383,0-4.238,0.059-5.566,0.176v-1.201c1.387-0.059,2.417-0.258,3.091-0.6
		s1.138-0.904,1.392-1.686c0.253-0.78,0.381-1.943,0.381-3.486V13.728c0-1.504-0.122-2.597-0.366-3.281
		c-0.245-0.684-0.693-1.152-1.348-1.406c-0.655-0.253-1.704-0.41-3.149-0.469V7.371c1.308,0.117,3.164,0.176,5.566,0.176
		c1.894,0,3.604-0.059,5.127-0.176l12.012,29.238l12.861-29.062h2.842c3.203,0,5.742-0.059,7.617-0.176v1.201
		C195.869,8.63,194.819,8.787,194.165,9.041z"/>
	<path class="st1" d="M239.546,7.034c1.084,0.342,2.041,0.787,2.871,1.333c0.83,0.547,1.733,1.23,2.71,2.051
		c0.488,0.391,0.879,0.586,1.172,0.586c0.82,0,1.328-1.211,1.523-3.633h1.406c-0.176,2.305-0.264,6.504-0.264,12.598h-1.377
		c-0.391-2.09-0.787-3.628-1.187-4.614c-0.4-0.986-1.001-2.007-1.802-3.062c-1.133-1.484-2.476-2.617-4.028-3.398
		c-1.553-0.781-3.189-1.172-4.907-1.172c-2.344,0-4.395,0.723-6.152,2.168c-1.758,1.446-3.116,3.526-4.072,6.24
		c-0.957,2.715-1.436,5.918-1.436,9.609c0,3.75,0.532,6.958,1.597,9.625c1.064,2.666,2.509,4.688,4.336,6.064
		c1.826,1.377,3.872,2.064,6.138,2.064c1.777,0,3.476-0.391,5.098-1.172c1.621-0.78,2.978-1.914,4.072-3.398
		c0.781-1.035,1.362-2.133,1.743-3.295s0.728-2.828,1.04-4.996h1.377c0,6.31,0.078,10.713,0.234,13.213h-1.377
		c-0.195-2.421-0.693-3.633-1.494-3.633c-0.313,0-0.713,0.195-1.201,0.586c-1.523,1.271-3.013,2.237-4.468,2.9
		c-1.455,0.664-3.208,0.996-5.259,0.996c-3.574,0-6.699-0.736-9.375-2.211c-2.676-1.475-4.751-3.619-6.226-6.432
		c-1.475-2.813-2.212-6.171-2.212-10.078c0-3.828,0.762-7.217,2.285-10.166c1.523-2.949,3.637-5.234,6.343-6.855
		c2.705-1.621,5.786-2.432,9.243-2.432C237.246,6.521,238.462,6.692,239.546,7.034z"/>
	<path class="st1" d="M301.743,9.041c-0.654,0.254-1.104,0.723-1.348,1.406c-0.244,0.684-0.365,1.777-0.365,3.281v23.759
		c0,1.505,0.121,2.598,0.365,3.281c0.244,0.685,0.693,1.153,1.348,1.406c0.654,0.254,1.704,0.41,3.15,0.469v1.201
		c-1.66-0.117-4.18-0.176-7.559-0.176c-3.281,0-5.859,0.059-7.735,0.176v-1.201c1.446-0.059,2.495-0.215,3.149-0.469
		c0.654-0.253,1.104-0.722,1.348-1.406c0.244-0.684,0.367-1.776,0.367-3.281V13.728c0-1.542-0.107-2.666-0.322-3.369
		c-0.216-0.703-0.611-1.176-1.188-1.421c-0.576-0.244-1.489-0.366-2.739-0.366h-0.791c-1.25,0-2.144,0.132-2.681,0.396
		c-0.538,0.264-0.904,0.718-1.099,1.362c-0.195,0.645-0.362,1.777-0.498,3.398l-0.352,4.658c-0.391,5.665-0.854,10.24-1.392,13.726
		c-0.538,3.486-1.523,6.455-2.959,8.906s-3.501,3.676-6.196,3.676c-1.387,0-2.612-0.336-3.677-1.01
		c-1.065-0.674-1.597-1.704-1.597-3.092c0-1.015,0.327-1.835,0.981-2.461c0.654-0.625,1.499-0.938,2.534-0.938
		c0.918,0,1.66,0.24,2.227,0.719c0.566,0.479,0.85,1.156,0.85,2.035c0,1.367-0.86,2.549-2.578,3.545
		c0.352,0.04,0.83,0.059,1.436,0.059c2.383,0,4.208-1.391,5.479-4.174c1.27-2.783,2.139-6.109,2.607-9.977
		c0.469-3.867,0.879-8.886,1.23-15.058l0.029-0.615c0.039-0.664,0.059-1.123,0.059-1.377c0-1.015-0.137-1.777-0.41-2.285
		c-0.274-0.508-0.752-0.869-1.436-1.084c-0.684-0.215-1.709-0.352-3.076-0.41V7.371c1.699,0.117,3.643,0.176,5.83,0.176
		c0.371,0,1.289-0.029,2.754-0.088c0.742-0.059,1.601-0.088,2.578-0.088s2.022,0.029,3.135,0.088
		c2.695,0.059,4.296,0.088,4.805,0.088c2.93,0,5.225-0.059,6.885-0.176v1.201C303.447,8.63,302.397,8.787,301.743,9.041z"/>
	<path class="st1" d="M353.292,8.733c2.5,1.475,4.438,3.618,5.814,6.431s2.066,6.172,2.066,10.078c0,3.808-0.714,7.188-2.139,10.136
		c-1.426,2.949-3.404,5.24-5.934,6.871c-2.529,1.63-5.395,2.445-8.598,2.445c-3.321,0-6.236-0.736-8.746-2.211
		s-4.453-3.619-5.83-6.432s-2.064-6.171-2.064-10.078v-0.439h-7.5v11.953c0,1.505,0.121,2.598,0.365,3.281
		c0.244,0.685,0.693,1.153,1.348,1.406c0.654,0.254,1.704,0.41,3.15,0.469v1.201c-1.856-0.117-4.395-0.176-7.617-0.176
		c-3.457,0-6.017,0.059-7.676,0.176v-1.201c1.445-0.059,2.494-0.215,3.148-0.469c0.654-0.253,1.104-0.722,1.348-1.406
		c0.244-0.684,0.367-1.776,0.367-3.281V13.728c0-1.504-0.123-2.597-0.367-3.281c-0.244-0.684-0.693-1.152-1.348-1.406
		c-0.654-0.253-1.703-0.41-3.148-0.469V7.371c1.659,0.117,4.219,0.176,7.676,0.176c3.223,0,5.761-0.059,7.617-0.176v1.201
		c-1.446,0.059-2.496,0.215-3.15,0.469c-0.654,0.254-1.104,0.723-1.348,1.406c-0.244,0.684-0.365,1.777-0.365,3.281v10.605h7.559
		c0.194-3.535,1.029-6.65,2.504-9.346s3.433-4.78,5.875-6.255c2.441-1.475,5.195-2.212,8.262-2.212
		C347.881,6.521,350.791,7.258,353.292,8.733z M350.229,41.312c1.572-1.533,2.788-3.672,3.648-6.416
		c0.859-2.744,1.289-5.885,1.289-9.419c0-3.555-0.484-6.684-1.451-9.39c-0.967-2.705-2.275-4.794-3.926-6.27
		c-1.65-1.475-3.471-2.212-5.463-2.212c-2.091,0-3.926,0.767-5.508,2.3c-1.582,1.534-2.803,3.672-3.662,6.416
		c-0.86,2.744-1.289,5.884-1.289,9.419c0,3.555,0.482,6.69,1.449,9.404c0.967,2.715,2.275,4.805,3.926,6.27s3.482,2.197,5.494,2.197
		C346.827,43.61,348.657,42.845,350.229,41.312z"/>
	<path class="st1" d="M389.458,25.037c2.451,0.508,4.385,1.47,5.801,2.886s2.125,3.441,2.125,6.078c0,1.934-0.553,3.644-1.656,5.127
		c-1.104,1.484-2.695,2.643-4.775,3.473s-4.536,1.244-7.367,1.244l-2.637-0.059c-2.422-0.077-4.786-0.117-7.09-0.117
		c-3.281,0-5.762,0.059-7.441,0.176v-1.201c1.445-0.059,2.494-0.215,3.148-0.469c0.654-0.253,1.104-0.722,1.348-1.406
		c0.244-0.684,0.367-1.776,0.367-3.281V13.728c0-1.523-0.123-2.626-0.367-3.311c-0.244-0.684-0.688-1.147-1.332-1.392
		c-0.645-0.244-1.699-0.396-3.164-0.454V7.371c1.659,0.117,4.102,0.176,7.324,0.176h8.467c6.152,0,10.527-0.059,13.125-0.176
		c-0.274,2.402-0.41,4.561-0.41,6.475c0,1.563,0.059,2.803,0.176,3.721h-1.377c-0.216-2.227-0.592-3.974-1.129-5.244
		c-0.537-1.27-1.309-2.183-2.314-2.739s-2.339-0.835-3.998-0.835h-5.596c-1.095,0-1.904,0.132-2.432,0.396s-0.895,0.737-1.1,1.421
		c-0.205,0.684-0.307,1.739-0.307,3.164v10.547h3.428C383.946,24.275,387.006,24.529,389.458,25.037z M388.799,40.271
		c1.718-1.465,2.578-3.633,2.578-6.504c0-2.772-0.802-4.877-2.402-6.313c-1.602-1.436-4.16-2.154-7.676-2.154h-4.453v12.187
		c0,1.446,0.102,2.51,0.307,3.193c0.205,0.685,0.576,1.153,1.113,1.406c0.537,0.254,1.363,0.381,2.477,0.381
		C384.394,42.468,387.081,41.735,388.799,40.271z"/>
	<path class="st1" d="M475.87,27.806c1.797,1.748,2.695,3.813,2.695,6.195c0,1.934-0.553,3.644-1.656,5.127
		c-1.104,1.484-2.695,2.643-4.775,3.473s-4.536,1.244-7.367,1.244l-2.637-0.059c-2.422-0.077-4.786-0.117-7.09-0.117
		c-3.281,0-5.762,0.059-7.441,0.176v-1.201c1.445-0.059,2.494-0.215,3.148-0.469c0.654-0.253,1.104-0.722,1.348-1.406
		c0.244-0.684,0.367-1.776,0.367-3.281V13.728c0-1.523-0.123-2.626-0.367-3.311c-0.244-0.684-0.688-1.147-1.332-1.392
		c-0.645-0.244-1.699-0.396-3.164-0.454V7.371c1.659,0.117,4.102,0.176,7.324,0.176c0.684,0,2.725-0.029,6.123-0.088l2.344-0.029
		c2.597,0,4.799,0.347,6.605,1.04c1.807,0.693,3.164,1.655,4.072,2.886s1.363,2.656,1.363,4.277c0,1.934-0.674,3.662-2.021,5.186
		s-3.516,2.676-6.504,3.457v0.117C471.083,24.919,474.072,26.058,475.87,27.806z M459.448,8.997
		c-0.537,0.283-0.908,0.787-1.113,1.509c-0.205,0.723-0.307,1.797-0.307,3.223v10.547h3.428c3.065,0,5.204-0.698,6.416-2.095
		c1.211-1.396,1.816-3.354,1.816-5.874c0-2.578-0.621-4.512-1.861-5.801s-3.227-1.934-5.961-1.934
		C460.792,8.572,459.985,8.714,459.448,8.997z M469.981,40.271c1.718-1.465,2.578-3.633,2.578-6.504
		c0-2.772-0.802-4.877-2.402-6.313c-1.602-1.436-4.16-2.154-7.676-2.154h-4.453v12.187c0,1.446,0.102,2.51,0.307,3.193
		c0.205,0.685,0.576,1.153,1.113,1.406c0.537,0.254,1.363,0.381,2.477,0.381C465.576,42.468,468.262,41.735,469.981,40.271z"/>
	<path class="st1" d="M509.678,26.81c2.187,1.826,3.281,4.126,3.281,6.898c0,2.051-0.533,3.834-1.598,5.348s-2.637,2.68-4.717,3.5
		s-4.595,1.23-7.543,1.23l-2.344-0.029c-3.398-0.059-5.439-0.088-6.123-0.088c-3.204,0-5.645,0.059-7.324,0.176v-1.201
		c1.445-0.059,2.494-0.209,3.148-0.453s1.104-0.708,1.348-1.393c0.244-0.684,0.367-1.787,0.367-3.311V13.728
		c0-1.504-0.123-2.597-0.367-3.281c-0.244-0.684-0.693-1.152-1.348-1.406c-0.654-0.253-1.703-0.41-3.148-0.469V7.371
		c1.659,0.117,4.219,0.176,7.676,0.176c3.241,0,5.781-0.059,7.617-0.176v1.201c-1.446,0.059-2.496,0.215-3.15,0.469
		c-0.654,0.254-1.104,0.723-1.348,1.406c-0.244,0.684-0.365,1.777-0.365,3.281v10.195l4.629,0.059
		C503.72,24.041,507.491,24.983,509.678,26.81z M504.756,40.433c1.465-1.475,2.197-3.658,2.197-6.549c0-1.797-0.254-3.329-0.762-4.6
		c-0.509-1.27-1.436-2.279-2.783-3.032c-1.348-0.751-3.223-1.128-5.625-1.128h-4.043v12.363c0,1.426,0.102,2.501,0.307,3.223
		c0.205,0.723,0.576,1.227,1.113,1.51s1.344,0.424,2.418,0.424C500.899,42.644,503.292,41.907,504.756,40.433z"/>
	<path class="st1" d="M560.391,8.733c2.5,1.475,4.438,3.618,5.814,6.431s2.066,6.172,2.066,10.078c0,3.808-0.714,7.188-2.139,10.136
		c-1.426,2.949-3.404,5.24-5.934,6.871c-2.529,1.63-5.395,2.445-8.598,2.445c-3.321,0-6.236-0.736-8.746-2.211
		s-4.453-3.619-5.83-6.432s-2.064-6.171-2.064-10.078v-0.439h-7.5v11.953c0,1.505,0.121,2.598,0.365,3.281
		c0.244,0.685,0.693,1.153,1.348,1.406c0.654,0.254,1.704,0.41,3.15,0.469v1.201c-1.856-0.117-4.395-0.176-7.617-0.176
		c-3.457,0-6.017,0.059-7.676,0.176v-1.201c1.445-0.059,2.494-0.215,3.148-0.469c0.654-0.253,1.104-0.722,1.348-1.406
		c0.244-0.684,0.367-1.776,0.367-3.281V13.728c0-1.504-0.123-2.597-0.367-3.281c-0.244-0.684-0.693-1.152-1.348-1.406
		c-0.654-0.253-1.703-0.41-3.148-0.469V7.371c1.659,0.117,4.219,0.176,7.676,0.176c3.223,0,5.761-0.059,7.617-0.176v1.201
		c-1.446,0.059-2.496,0.215-3.15,0.469c-0.654,0.254-1.104,0.723-1.348,1.406c-0.244,0.684-0.365,1.777-0.365,3.281v10.605h7.559
		c0.194-3.535,1.029-6.65,2.504-9.346s3.433-4.78,5.875-6.255c2.441-1.475,5.195-2.212,8.262-2.212
		C554.981,6.521,557.89,7.258,560.391,8.733z M557.329,41.312c1.572-1.533,2.788-3.672,3.648-6.416
		c0.859-2.744,1.289-5.885,1.289-9.419c0-3.555-0.484-6.684-1.451-9.39c-0.967-2.705-2.275-4.794-3.926-6.27
		c-1.65-1.475-3.471-2.212-5.463-2.212c-2.091,0-3.926,0.767-5.508,2.3c-1.582,1.534-2.803,3.672-3.662,6.416
		c-0.86,2.744-1.289,5.884-1.289,9.419c0,3.555,0.482,6.69,1.449,9.404c0.967,2.715,2.275,4.805,3.926,6.27s3.482,2.197,5.494,2.197
		C553.926,43.61,555.756,42.845,557.329,41.312z"/>
</g>
<path class="st0" d="M397.974,17.106l8.809-14.101c0,0-8.438,20.716-8.122,21.79c0.316,1.076,10.302-23.041,11.188-23.264
	c0.885-0.223-11.816,25.292-9.424,28.003c2.393,2.712,10.319-30.011,13.322-28.004c3.004,2.007-14.833,30.075-11.5,31.296
	c3.332,1.221,13.398-32.83,14.611-30.58c1.213,2.252-16.323,34.925-11.158,35.165c5.164,0.239,9.371-37.604,13.117-33.956
	c3.745,3.648-13.297,35.359-10.865,36.52c2.433,1.16,12.488-35.229,13.254-34.402c0.766,0.828-12.332,35.465-11.616,36.317
	s12.153-35.847,12.947-34.82s-12.54,35.271-11.336,36.755c1.204,1.484,12.619-35.152,13.233-34.116
	c0.615,1.036-12.573,36.524-10.609,37.399c1.965,0.874,11.584-36.617,12.305-37.029c0.722-0.412-12.827,37.791-10.947,38.809
	s11.787-39.395,13.519-40.186c1.732-0.79-14.868,43.139-12.431,41.684c2.437-1.456,12.938-42.189,15.494-43.005
	c2.558-0.815-14.391,43.403-11.879,40.861C422.396,45.7,431.1,7.14,434.322,6.565c3.222-0.576-11.795,40.953-9.519,38.902
	c2.277-2.05,10.453-39.489,12.74-39.479c2.287,0.012-12.443,40.045-9.651,37.836s8.95-40.766,11.938-37.824
	c2.986,2.942-11.428,38.618-8.186,35.976c3.244-2.644,7.627-38.655,9.88-35.665c2.253,2.992-8.581,35.348-5.831,33.524
	c2.751-1.823,4.859-35.481,7.7-32.761c2.841,2.723-6.294,32.129-4.229,30.393c2.063-1.737,4.449-30.967,5.855-29.164
	c1.406,1.802-2,29.713-3.793,27.427c-1.792-2.286,3.992-27.027,5.555-24.985c1.561,2.041-1.002,24.889-2.844,22.113
	c-1.842-2.773,3.639-21.779,4.082-19.123c0.442,2.655-0.133,16.969-1.347,14.977c-1.214-1.991,1.919-14.35,2.093-11.714"/>
</svg>
