<?xml version="1.0" standalone="no"?>
<!DOCTYPE svg PUBLIC "-//W3C//DTD SVG 1.1//EN" "http://www.w3.org/Graphics/SVG/1.1/DTD/svg11.dtd" >
<svg xmlns="http://www.w3.org/2000/svg">
<metadata></metadata>
<defs>
<font id="exo_2.0semi_bold_italic" horiz-adv-x="581" >
<font-face units-per-em="1000" ascent="800" descent="-200" />
<missing-glyph horiz-adv-x="220" />
<glyph horiz-adv-x="1000" />
<glyph horiz-adv-x="1000" />
<glyph unicode="&#xd;" horiz-adv-x="1000" />
<glyph unicode=" "  horiz-adv-x="220" />
<glyph unicode="&#x09;" horiz-adv-x="220" />
<glyph unicode="&#xa0;" horiz-adv-x="220" />
<glyph unicode="!" horiz-adv-x="285" d="M49 46l8 51q4 40 46 40h29q48 0 39 -45l-6 -51q-4 -41 -46 -41h-28q-48 0 -42 46zM84 216l15 194l40 285h120l-41 -285l-38 -194h-96z" />
<glyph unicode="&#x22;" horiz-adv-x="365" d="M91 472l23 218h94l-39 -218h-78zM245 472l23 218h94l-38 -218h-79z" />
<glyph unicode="#" horiz-adv-x="697" d="M22 204l25 74h115l50 157h-116l26 75h113l57 180h94l-57 -180h157l57 180h94l-57 -180h112l-26 -75h-110l-49 -157h110l-25 -74h-108l-64 -204h-94l64 204h-157l-64 -204h-94l64 204h-117zM256 278h157l50 157h-158z" />
<glyph unicode="$" horiz-adv-x="567" d="M21 11l15 91l176 -4l45 201l-62 23q-72 27 -98 75.5t-16 123.5q16 110 74 145.5t181 35.5h23l21 94h51l-22 -96q76 -5 142 -22l-13 -88q-138 3 -154 3l-45 -197l54 -19q76 -28 100.5 -74t14.5 -126q-15 -113 -71.5 -151t-192.5 -38h-7l-25 -110h-50l25 111q-96 6 -166 22 zM206 511q-6 -43 5.5 -58t54.5 -30l27 -10l41 181q-31 0 -44.5 -0.5t-31.5 -4.5t-26 -13t-15 -24.5t-11 -40.5zM262 98q65 2 89.5 19t31.5 69q5 43 -6 59t-51 29l-22 8z" />
<glyph unicode="%" horiz-adv-x="903" d="M66 503q17 112 57.5 156t129.5 44q95 0 128 -48t17 -162q-16 -112 -57 -156t-131 -44q-94 0 -127 48t-17 162zM151 0l524 690h89l-525 -690h-88zM156 493q-11 -75 -0.5 -101.5t52.5 -26.5q52 0 70.5 27.5t30.5 110.5q11 75 -0.5 101.5t-53.5 26.5q-50 0 -68.5 -27.5 t-30.5 -110.5zM518 198q17 112 57.5 156.5t129.5 44.5q95 0 128 -48t17 -162q-16 -112 -57 -156t-132 -44q-93 0 -126 48t-17 161zM608 189q-11 -76 -0.5 -102.5t52.5 -26.5q52 0 70.5 27.5t30.5 110.5q11 75 0 102t-54 27q-50 0 -69 -28t-30 -110z" />
<glyph unicode="&#x26;" horiz-adv-x="743" d="M37 180q19 166 160 176l1 5q-58 4 -81 47.5t-11 116.5q18 106 81 141t189 35q91 0 174 -21l-21 -90q-58 12 -148 12q-81 0 -111.5 -19.5t-40.5 -83.5q-9 -57 11 -77t82 -20h200q2 36 2 116h108q1 -54 -2 -116h95l-13 -91h-91q-16 -103 -55 -167q-94 -155 -325 -155 q-119 0 -167 45t-37 146zM170 194q-8 -56 10.5 -78t80.5 -22q141 0 204 93q33 45 48 124h-203q-68 0 -99 -25.5t-41 -91.5z" />
<glyph unicode="'" horiz-adv-x="212" d="M91 472l23 218h94l-39 -218h-78z" />
<glyph unicode="(" horiz-adv-x="360" d="M47 317q28 196 110 310.5t231 163.5l14 -56q-99 -44 -156.5 -148t-81.5 -279q-23 -165 3 -269.5t110 -149.5l-16 -52q-137 49 -189 167.5t-25 312.5z" />
<glyph unicode=")" horiz-adv-x="360" d="M-36 -110q190 90 238 428q23 168 -2.5 272t-110.5 146l16 53q137 -50 189.5 -168t24.5 -314q-28 -194 -110 -308.5t-231 -164.5z" />
<glyph unicode="*" horiz-adv-x="449" d="M78 543l27 65l115 -48l-4 -30l-17 -19zM111 398l122 128l12 165h71l-35 -164l87 -129l-57 -41l-57 122l-90 -121zM302 530l2 30l124 47l13 -68l-126 -28z" />
<glyph unicode="+" horiz-adv-x="543" d="M42 255l13 90h178l24 171h92l-25 -171h179l-13 -90h-178l-24 -171h-91l24 171h-179z" />
<glyph unicode="," horiz-adv-x="238" d="M22 40l8 56q5 24 15.5 32.5t37.5 8.5h31q24 0 33.5 -10.5t5.5 -34.5l-8 -64q-12 -84 -67 -170l-56 19q30 97 36 125q-20 -1 -29 9t-7 29z" />
<glyph unicode="-" horiz-adv-x="427" d="M52 211l12 86h300l-12 -86h-300z" />
<glyph unicode="." horiz-adv-x="235" d="M22 46l8 51q4 40 46 40h36q46 0 40 -45l-7 -51q-4 -41 -46 -41h-36q-47 0 -41 46z" />
<glyph unicode="/" horiz-adv-x="542" d="M-26 -69l500 759h100l-500 -759h-100z" />
<glyph unicode="0" horiz-adv-x="614" d="M63 350q26 193 92.5 273t201.5 80q140 0 188 -85.5t21 -277.5q-27 -193 -93.5 -273t-201.5 -80q-138 0 -187 84.5t-21 278.5zM184 342q-21 -143 -2.5 -196.5t90.5 -53.5q78 0 115.5 55.5t57.5 200.5q21 143 1.5 196.5t-92.5 53.5q-77 0 -114 -55.5t-56 -200.5z" />
<glyph unicode="1" horiz-adv-x="412" d="M59 620l182 70h125l-97 -690h-125l72 511q5 40 14 69l-167 -49z" />
<glyph unicode="2" horiz-adv-x="564" d="M8 0l11 77q5 37 21 53l208 198q79 72 115.5 120t40.5 91q4 34 -17 44t-75 10q-100 0 -207 -12v97q119 24 220 24q109 0 162 -34t43 -126q-7 -61 -38 -112t-106 -123l-207 -195q40 6 103 6h212l-16 -118h-470z" />
<glyph unicode="3" horiz-adv-x="555" d="M9 5l13 96q12 -1 67.5 -4.5t59 -2.5t58.5 1q140 9 158 117q9 49 -13 75t-85 27l-131 3l12 90h127q64 0 89.5 28t31.5 81q5 48 -15 64t-95 16q-100 0 -176 -6v95q115 18 202 18q116 0 163.5 -40.5t39.5 -124.5q-3 -40 -15.5 -76t-40.5 -65.5t-67 -32.5l-1 -4 q121 -20 98 -170q-28 -197 -273 -203q-82 -3 -207 18z" />
<glyph unicode="4" horiz-adv-x="622" d="M37 283l238 407h124l-232 -403q-20 -34 13 -34h195l27 192l37 112h96l-42 -304h88l-12 -84l-88 -13h-2l-22 -156h-117l22 156h-250q-56 0 -79 41t4 86z" />
<glyph unicode="5" horiz-adv-x="539" d="M9 11l20 101q94 -20 167 -15q79 4 117 36t46 92q7 55 -23.5 77.5t-117.5 30.5l-88 8q-23 2 -36 19t-9 40l57 290h386l-20 -103h-280l-29 -148l77 -9q113 -12 164 -64t40 -150q-5 -42 -19.5 -78t-42.5 -70t-78 -55t-117 -25q-102 -5 -214 23z" />
<glyph unicode="6" horiz-adv-x="576" d="M63 342q17 116 42 188.5t65.5 109.5t86.5 49.5t119 12.5t162 -18l-13 -86q-49 2 -141 2q-93 0 -129.5 -40t-60.5 -169q73 63 163 63q96 0 139 -51.5t25 -175.5q-18 -125 -76 -182t-189 -57q-141 0 -181 78.5t-12 275.5zM176 288q-18 -118 -1 -158t88 -40q38 0 63 8.5 t40.5 28.5t23 44t13.5 63q10 72 -4 97.5t-75 25.5q-69 0 -148 -69z" />
<glyph unicode="7" horiz-adv-x="519" d="M76 586l9 104h402q36 0 49 -21t-2 -54l-298 -615h-125l257 529q14 32 34 57h-326z" />
<glyph unicode="8" horiz-adv-x="608" d="M40 177q12 82 43.5 129t97.5 53l1 4q-96 11 -76 160q13 97 65.5 138t181.5 40q134 0 179 -44t31 -144q-21 -142 -122 -154l-1 -4q115 -12 90 -188q-13 -96 -68.5 -137t-193.5 -42q-133 0 -186.5 46t-41.5 143zM162 194q-9 -61 13.5 -82t102.5 -21q73 0 102 24t37 89 q10 65 -11.5 86t-102.5 21q-76 -1 -103.5 -22.5t-37.5 -94.5zM216 500q-8 -57 12.5 -76t94.5 -19q69 0 93.5 21.5t32.5 82.5q9 58 -10.5 77.5t-93.5 19.5q-72 0 -96 -21.5t-33 -84.5z" />
<glyph unicode="9" horiz-adv-x="576" d="M40 6l15 87q77 -3 151 -2q93 2 131 46t61 165q-67 -67 -157 -67q-194 0 -169 229q15 131 77.5 184.5t186.5 53.5q139 0 180.5 -75t10.5 -279q-22 -147 -60.5 -225t-97 -106.5t-158.5 -28.5q-92 0 -171 18zM187 459q-8 -69 9 -98t73 -29q40 0 72 15t74 55 q19 119 2.5 158.5t-90.5 39.5q-72 0 -101 -31t-39 -110z" />
<glyph unicode=":" horiz-adv-x="250" d="M16 46l8 51q4 40 46 40h36q46 0 40 -45l-7 -51q-4 -41 -46 -41h-36q-47 0 -41 46zM59 355l8 51q6 40 46 40h36q47 0 40 -45l-6 -51q-6 -41 -47 -41h-35q-48 0 -42 46z" />
<glyph unicode=";" horiz-adv-x="254" d="M31 40l8 56q5 24 15.5 32.5t37.5 8.5h31q24 0 33.5 -10.5t5.5 -34.5l-8 -64q-12 -84 -67 -170l-56 19q30 97 36 125q-20 -1 -29 9t-7 29zM73 355l7 51q6 40 47 40h35q47 0 41 -45l-7 -51q-6 -41 -46 -41h-36q-48 0 -41 46z" />
<glyph unicode="&#x3c;" horiz-adv-x="519" d="M38 252l13 95l438 167l-14 -99l-327 -118l293 -121l-13 -93z" />
<glyph unicode="=" horiz-adv-x="582" d="M45 145l13 89h450l-12 -89h-451zM75 356l12 89h450l-12 -89h-450z" />
<glyph unicode="&#x3e;" horiz-adv-x="520" d="M33 85l13 99l328 121l-293 120l12 91l391 -169l-14 -95z" />
<glyph unicode="?" horiz-adv-x="505" d="M83 604v85q5 1 23 4.5t22.5 4t19.5 3.5t22 3.5t21.5 2.5t25.5 2.5t27 1.5t33 1h37q103 0 153 -40t39 -120q-5 -40 -27.5 -74t-52 -60t-59 -53t-55 -65.5t-34.5 -85.5h-100q6 49 26.5 92t47 72.5t52.5 55t46 52t24 51.5q7 44 -12.5 59t-76.5 15q-85 0 -202 -7zM147 46 l7 50q6 41 47 41h28q47 0 41 -45l-7 -51q-4 -41 -46 -41h-29q-48 0 -41 46z" />
<glyph unicode="@" horiz-adv-x="789" d="M49 231q12 72 32 118t52 68.5t65.5 30t85.5 7.5q88 0 239 -28l-47 -297q-2 -22 4 -31.5t24 -9.5q52 0 73.5 49t40.5 190q5 36 8.5 61.5t3.5 49v38.5t-6.5 29t-11.5 21.5t-20 14t-26 9t-36.5 4.5t-44 2h-54.5h-330l9 86q148 8 324 10q74 1 121 -3t87 -17.5t59.5 -35.5 t30.5 -60.5t10 -90t-12 -126.5q-24 -195 -72.5 -261.5t-164.5 -66.5q-114 0 -131 93q-75 -97 -181 -97q-85 0 -119.5 56t-12.5 187zM164 224q-13 -91 -3.5 -114t50.5 -23t75.5 23t80.5 78l29 173l-77 2q-86 0 -113 -23.5t-42 -115.5z" />
<glyph unicode="A" horiz-adv-x="634" d="M-35 0l300 659q10 31 46 31h123q16 0 27.5 -10.5t12.5 -25.5l117 -654h-125l-29 194h-258l-83 -194h-131zM224 300h197l-35 234l-6 63h-30q-8 -21 -25 -62z" />
<glyph unicode="B" horiz-adv-x="626" d="M35 0l97 690q85 8 238 8q130 0 180.5 -40t35.5 -145q-11 -74 -43 -111t-96 -43l-1 -5q140 -11 114 -187q-15 -104 -68.5 -139.5t-175.5 -35.5q-185 0 -281 8zM171 94l125 -1q74 0 103.5 21.5t38.5 85.5q9 66 -13 88.5t-93 23.5h-130zM215 403h122q64 0 92 21.5t36 81.5 q8 56 -13 73.5t-88 17.5h-122z" />
<glyph unicode="C" horiz-adv-x="574" d="M60 350q27 197 98 274.5t225 77.5q114 0 199 -23l-18 -94q-87 7 -184 7q-60 0 -94 -19.5t-57.5 -74t-37.5 -158.5q-20 -139 3 -190t106 -52q110 -1 203 10l6 -95q-84 -25 -212 -25q-153 0 -208.5 85.5t-28.5 276.5z" />
<glyph unicode="D" horiz-adv-x="669" d="M35 0l97 690q124 9 233 9q168 0 227 -78.5t31 -280.5q-13 -92 -32.5 -154t-45.5 -101t-67.5 -59.5t-87 -27.5t-115.5 -7q-100 0 -240 9zM174 98q76 -2 100 -2q75 0 113.5 17.5t63.5 71.5t41 165q9 65 10.5 106.5t-4.5 70t-24.5 43t-44 20t-68.5 5.5l-117 -1z" />
<glyph unicode="E" horiz-adv-x="565" d="M51 154l57 410q8 61 49 94.5t111 33.5q215 0 304 -9l-16 -95h-266q-30 0 -43.5 -13t-17.5 -47l-17 -121h281l-12 -93h-281l-22 -155q-4 -32 7 -44.5t42 -12.5h260l-3 -96q-85 -8 -282 -8q-85 0 -123 41t-28 115z" />
<glyph unicode="F" horiz-adv-x="544" d="M33 0l78 558q20 134 160 134q209 0 296 -10l-17 -94h-247q-37 0 -51.5 -12t-18.5 -48l-19 -134h272l-13 -93h-272l-42 -301h-126z" />
<glyph unicode="G" horiz-adv-x="631" d="M60 350q14 109 41.5 179.5t72.5 108t97.5 51.5t129.5 14q118 0 203 -24l-17 -92q-96 6 -176 6q-76 0 -116 -18.5t-65 -72.5t-39 -162q-15 -138 3 -191t82 -53q45 0 79.5 20t82.5 67l30 217h120l-56 -400h-90l-3 88q-86 -101 -211 -101q-104 0 -146.5 87t-21.5 276z" />
<glyph unicode="H" horiz-adv-x="675" d="M35 0l97 690h126l-38 -271h271l38 271h125l-97 -690h-125l44 315h-270l-45 -315h-126z" />
<glyph unicode="I" horiz-adv-x="279" d="M35 0l97 690h126l-97 -690h-126z" />
<glyph unicode="J" horiz-adv-x="352" d="M-13 7l23 86h43q71 0 81 65l74 532h126l-76 -540q-11 -79 -52 -120t-107 -41q-69 0 -112 18z" />
<glyph unicode="K" horiz-adv-x="613" d="M35 0l97 690h126l-30 -207q-8 -50 -16 -76h64l223 283h149l-224 -283q-26 -32 -55 -49l-1 -5q22 -22 40 -60l154 -293h-140l-158 311h-67q2 -37 -3 -70l-33 -241h-126z" />
<glyph unicode="L" horiz-adv-x="517" d="M56 156l73 534h126l-74 -530q-4 -28 6.5 -42t41.5 -14h240l-3 -98q-86 -8 -272 -8q-74 0 -111.5 40.5t-26.5 117.5z" />
<glyph unicode="M" horiz-adv-x="892" d="M23 0l116 643q7 47 52 47h126q40 0 45 -44l51 -374q6 -41 8 -95h16q13 41 34 92l149 381q16 39 56 40h129q24 0 35.5 -13.5t9.5 -37.5l-62 -639h-122l62 589h-18l-183 -461q-16 -40 -56 -40h-96q-42 0 -49 44l-60 457h-19l-102 -589h-122z" />
<glyph unicode="N" horiz-adv-x="712" d="M35 0l91 646q6 44 49 44h90q33 0 47 -40l140 -411q25 -76 34 -109h14q1 54 9 108l61 452h122l-92 -646q-6 -44 -48 -44h-91q-33 0 -47 40l-145 423q-19 53 -28 101h-12q-1 -44 -8 -101l-63 -463h-123z" />
<glyph unicode="O" horiz-adv-x="672" d="M60 350q27 197 99 275t228 78q151 0 209 -82.5t31 -280.5q-27 -201 -99 -277t-225 -76t-211.5 81t-31.5 282zM191 340q-20 -142 4 -194t111 -52q88 0 128.5 54t61.5 202q22 145 -2.5 195.5t-111.5 50.5q-91 0 -130 -52.5t-61 -203.5z" />
<glyph unicode="P" horiz-adv-x="597" d="M35 0l97 690q89 9 244 9q130 0 179 -51.5t32 -174.5q-19 -133 -72 -175.5t-182 -42.5q-73 0 -136 9l-37 -264h-125zM210 357h117q71 0 98 25t38 100q10 68 -10 91t-81 23h-128z" />
<glyph unicode="Q" horiz-adv-x="672" d="M60 350q27 197 99 275t228 78q151 0 209 -82.5t31 -280.5q-27 -201 -99 -277t-225 -76t-211.5 81t-31.5 282zM191 340q-20 -142 4 -194t111 -52q88 0 128.5 54t61.5 202q22 145 -2.5 195.5t-111.5 50.5q-91 0 -130 -52.5t-61 -203.5zM196 -110l44 71q119 -50 280 -75 l-49 -120q-152 41 -275 124z" />
<glyph unicode="R" horiz-adv-x="629" d="M35 0l97 690q89 9 245 9q119 0 175.5 -47t41.5 -160q-10 -75 -46 -117.5t-109 -51.5l-1 -6q64 -16 79 -103l41 -214h-128l-37 216q-6 34 -21 47t-46 13l-129 1l-39 -277h-123zM211 379h122q67 1 96 25.5t39 89.5q8 59 -12 80.5t-82 21.5h-132z" />
<glyph unicode="S" horiz-adv-x="568" d="M20 11l14 91q175 -4 205 -4q81 0 109 16t35 72q6 43 -5.5 58.5t-51.5 29.5l-132 48q-72 27 -98 75.5t-16 123.5q16 110 74 145.5t181 35.5q128 0 216 -24l-13 -88q-118 4 -202 4q-32 0 -45.5 -0.5t-32.5 -4.5t-27 -13t-15 -24.5t-11 -40.5q-6 -43 5.5 -58t54.5 -30 l128 -46q77 -28 101.5 -74t13.5 -126q-15 -113 -71.5 -151t-192.5 -38q-114 0 -224 23z" />
<glyph unicode="T" horiz-adv-x="584" d="M59 583l15 107h548l-15 -107h-212l-82 -583h-125l82 583h-211z" />
<glyph unicode="U" horiz-adv-x="668" d="M68 273l58 417h126l-59 -422q-14 -100 9 -137t99 -37q79 0 116 39.5t52 139.5l58 417h126l-60 -422q-22 -154 -88 -217.5t-202 -63.5q-140 0 -198 67t-37 219z" />
<glyph unicode="V" horiz-adv-x="619" d="M64 690h127l67 -519q6 -52 8 -78h25q10 39 29 81l211 516h133l-290 -658q-14 -32 -46 -32h-117q-16 0 -27.5 10.5t-13.5 26.5z" />
<glyph unicode="W" horiz-adv-x="955" d="M81 690h127l10 -505q1 -43 0 -94h22q5 20 29 99l148 463q13 37 50 37h119q18 0 29 -12t12 -30l27 -464q4 -62 3 -93h22q9 38 26 97l149 502h130l-213 -657q-11 -33 -48 -33h-128q-17 0 -29.5 11.5t-13.5 27.5l-21 479q0 1 -1.5 32.5t-1.5 47.5h-20q-8 -32 -24 -83 l-153 -481q-11 -34 -48 -34h-127q-17 0 -30 11t-14 27z" />
<glyph unicode="X" horiz-adv-x="623" d="M-26 0l234 355l-121 335h126l98 -288h20l186 288h135l-218 -335l133 -355h-127l-109 312h-19l-196 -312h-142z" />
<glyph unicode="Y" horiz-adv-x="586" d="M59 690h127l87 -270q13 -38 16 -84h10q9 38 38 87l163 267h136l-292 -458l-32 -232h-126l34 238z" />
<glyph unicode="Z" horiz-adv-x="570" d="M3 0l14 102l406 486h-332l15 102h471l-15 -102l-406 -486h345l-14 -102h-484z" />
<glyph unicode="[" horiz-adv-x="335" d="M26 -96l112 799q5 30 24.5 47.5t49.5 17.5h155l-11 -77h-85q-20 0 -23 -20l-105 -743q-1 -16 12 -16h92l-11 -77h-149q-31 0 -48.5 17t-12.5 52z" />
<glyph unicode="\" horiz-adv-x="526" d="M75 690h92l289 -759h-92z" />
<glyph unicode="]" horiz-adv-x="335" d="M-29 -165l10 77h85q8 0 15.5 5.5t8.5 14.5l105 743q1 16 -13 16h-92l12 77h148q30 0 48 -20t14 -49l-113 -799q-4 -29 -24 -47t-49 -18h-155z" />
<glyph unicode="^" horiz-adv-x="446" d="M51 397l179 219h88l120 -219l-50 -28l-115 170h-8l-168 -170z" />
<glyph unicode="_" horiz-adv-x="569" d="M10 -86l13 86h441l-13 -86h-441z" />
<glyph unicode="`" horiz-adv-x="337" d="M69 647l60 84l191 -148l-41 -53z" />
<glyph unicode="a" d="M41 253q12 83 33.5 134.5t56.5 76.5t70.5 32.5t92.5 7.5q127 0 247 -29l-67 -475h-96l3 85q-83 -96 -205 -97q-90 -1 -122.5 59t-12.5 206zM164 247q-14 -103 -5.5 -130t49.5 -27q42 0 81 23.5t89 73.5l31 219l-89 1q-46 0 -70 -4.5t-42.5 -22t-27 -47.5t-16.5 -86z" />
<glyph unicode="b" horiz-adv-x="582" d="M28 25l95 675h120l-25 -191q-10 -71 -26 -110q45 44 99.5 74t103.5 30q88 0 120 -57.5t12 -206.5q-11 -78 -31 -129t-52.5 -77.5t-69 -36t-89.5 -9.5q-57 0 -132.5 11t-124.5 27zM157 84q82 -2 91 -2q46 0 69.5 5t42.5 23.5t27.5 49t16.5 87.5q13 101 4 127t-48 26 q-30 0 -76 -24.5t-95 -67.5z" />
<glyph unicode="c" horiz-adv-x="494" d="M38 250q20 140 80 197t188 57q106 0 172 -29l-17 -74q-102 2 -137 2q-80 0 -113.5 -31.5t-45.5 -128.5q-12 -98 9 -126.5t96 -28.5q84 0 151 10l8 -81q-76 -29 -181 -29q-132 0 -181 61t-29 201z" />
<glyph unicode="d" d="M41 253q12 81 32.5 132.5t51.5 76.5t63 33.5t79 8.5q76 0 159 -13q2 48 7 94l17 115h122l-98 -700h-96l3 94q-102 -106 -213 -106q-78 0 -112.5 60.5t-14.5 204.5zM164 247q-13 -96 -4.5 -126t48.5 -29q41 0 78.5 21.5t91.5 71.5l31 224l-92 1q-59 0 -86 -10.5t-42 -43.5 t-25 -109z" />
<glyph unicode="e" horiz-adv-x="548" d="M40 258q19 141 79 193.5t198 52.5q122 0 164.5 -41.5t31.5 -121.5q-10 -72 -56 -104t-141 -38l-155 -13q1 -58 28 -78.5t82 -20.5q83 0 184 12l8 -79q-77 -32 -208 -32t-182 66.5t-33 203.5zM168 268l140 12q42 3 61.5 18.5t24.5 53.5q3 38 -15 47t-77 9 q-66 -1 -93 -28.5t-41 -111.5z" />
<glyph unicode="f" horiz-adv-x="392" d="M-114 -187l20 86h70q44 0 62.5 14t25.5 56l61 433h-87l11 83l89 5l11 83q21 146 167 146q90 0 151 -9l-20 -86h-92q-44 0 -62 -14t-25 -57l-9 -63h143l-12 -88h-143l-65 -452q-21 -146 -166 -146q-58 0 -130 9z" />
<glyph unicode="g" horiz-adv-x="582" d="M11 -184l11 77q72 -2 148 -2q162 0 187 102q1 5 6 25t8 29.5t9.5 25.5t14.5 29q-38 -50 -95 -81t-126 -32q-83 -1 -118 58.5t-14 205.5q10 67 26.5 114t36.5 73.5t49.5 41t56 18.5t66.5 4q144 0 265 -29l-63 -450q-26 -232 -301 -232q-104 0 -167 23zM165 247 q-13 -101 -4 -129.5t48 -27.5q43 1 81.5 24t88.5 73l32 219l-92 1q-85 0 -111.5 -27t-42.5 -133z" />
<glyph unicode="h" horiz-adv-x="587" d="M26 0l98 700h121l-24 -183q-10 -70 -25 -120q120 107 219 107q64 0 96.5 -36t22.5 -102l-52 -366h-121l46 334q5 40 -2 53.5t-33 13.5q-38 0 -78.5 -22.5t-104.5 -72.5l-42 -306h-121z" />
<glyph unicode="i" horiz-adv-x="262" d="M30 0l69 490h120l-68 -490h-121zM114 616l8 54q3 33 37 33h55q18 0 26.5 -10t6.5 -27l-7 -55q-6 -33 -38 -33h-55q-38 0 -33 38z" />
<glyph unicode="j" horiz-adv-x="263" d="M-50 -144q68 68 81 155l68 479h121l-69 -485q-8 -63 -44 -118.5t-91 -87.5zM114 616l8 54q3 33 37 33h55q18 0 26.5 -10t6.5 -27l-7 -55q-6 -33 -38 -33h-55q-39 0 -33 38z" />
<glyph unicode="k" horiz-adv-x="543" d="M26 0l98 700h122l-42 -313q-8 -60 -34 -123q199 105 229 226h124q-38 -133 -158 -220q18 -24 34 -60l92 -210h-129l-88 215q-35 -19 -102 -49l-25 -166h-121z" />
<glyph unicode="l" horiz-adv-x="311" d="M44 126l81 574h121l-78 -550q-4 -31 6.5 -42.5t42.5 -11.5h44l5 -91q-32 -16 -103 -16q-63 0 -95 36t-24 101z" />
<glyph unicode="m" horiz-adv-x="873" d="M26 0l69 490h93l-2 -97q108 111 205 111q55 0 85 -27t32 -75q54 54 100 78t95 24q65 0 95.5 -37t20.5 -101l-51 -366h-120l46 334q6 38 -4.5 52.5t-37.5 14.5q-31 0 -62.5 -19.5t-91.5 -75.5l-43 -306h-116l46 334q5 36 -4 51.5t-38 15.5q-32 0 -63.5 -19t-90.5 -72 l-43 -310h-120z" />
<glyph unicode="n" horiz-adv-x="587" d="M26 0l69 490h96l-3 -101q124 115 228 115q62 0 94.5 -36t23.5 -102l-52 -366h-121l46 332q5 41 -2.5 55.5t-33.5 13.5q-38 0 -78 -22t-104 -72l-42 -307h-121z" />
<glyph unicode="o" horiz-adv-x="573" d="M38 249q20 139 81 197t192 58q130 0 180.5 -61.5t30.5 -202.5q-19 -138 -80.5 -195.5t-189.5 -57.5q-129 0 -181 61t-33 201zM165 240q-14 -92 4 -124t84 -32q69 0 100 34.5t44 130.5q13 94 -4.5 126t-82.5 32q-69 0 -100 -34t-45 -133z" />
<glyph unicode="p" horiz-adv-x="584" d="M-2 -195l97 685h96l-3 -98q46 46 102.5 78t106.5 32q58 0 89.5 -22.5t44.5 -81t-3 -160.5q-11 -81 -31.5 -133t-53 -77t-66 -33t-83.5 -8q-66 0 -151 13q0 -47 -7 -93l-16 -102h-122zM160 81l89 -1q88 0 114.5 27.5t41.5 135.5q13 103 4 130t-48 27q-29 0 -75.5 -25 t-94.5 -69z" />
<glyph unicode="q" horiz-adv-x="578" d="M41 251q11 79 31 130t51.5 77.5t66.5 36t87 9.5q148 0 261 -37l-94 -662h-121l25 173q10 65 28 112q-98 -102 -207 -102q-80 0 -114.5 59.5t-13.5 203.5zM164 246q-13 -96 -4.5 -125t48.5 -29q41 0 78 21t92 71l31 223q-80 2 -93 2q-44 0 -67.5 -5t-41.5 -23t-26.5 -48 t-16.5 -87z" />
<glyph unicode="r" horiz-adv-x="410" d="M26 0l69 490h93l-3 -104q118 118 215 118h28l-28 -114h-32q-24 0 -53 -11.5t-53 -25t-73 -45.5l-42 -308h-121z" />
<glyph unicode="s" horiz-adv-x="514" d="M14 5l13 85q53 -4 152 -4q91 0 120.5 7.5t34.5 31.5q-1 6 0.5 9.5t-1.5 7.5t-3.5 6t-5 5t-6.5 5t-8 4.5t-10 4.5t-12 5.5t-13 5.5l-125 56q-57 26 -80 61t-17 87q8 68 58.5 95.5t154.5 26.5q117 -2 217 -18l-13 -83q-94 3 -196 3q-61 0 -81 -5t-23 -27q-3 -20 9 -30.5 t47 -25.5l125 -56q62 -27 85 -58.5t16 -86.5q-5 -34 -18 -57t-31.5 -37t-49 -21.5t-61.5 -10t-77 -2.5q-38 0 -67 1.5t-43.5 3t-43.5 5.5t-47 6z" />
<glyph unicode="t" horiz-adv-x="397" d="M36 402l11 83l91 5l20 141h120l-20 -141h142l-11 -88h-144l-36 -252q-4 -32 5.5 -43t42.5 -11h69l5 -90q-51 -17 -124 -17q-67 0 -98.5 38t-21.5 107l38 268h-89z" />
<glyph unicode="u" horiz-adv-x="577" d="M41 125l51 365h121l-47 -333q-6 -37 3.5 -52t38.5 -15q37 0 72 21t95 73l42 306h120l-68 -490h-94l4 97q-116 -110 -218 -110q-68 0 -99 37t-21 101z" />
<glyph unicode="v" horiz-adv-x="550" d="M39 490h128l57 -400h14q20 0 32.5 7t26.5 28q27 41 61 138q33 92 55 227h127q-22 -122 -77 -268q-39 -102 -77 -154q-24 -37 -50.5 -52.5t-72.5 -15.5h-99q-32 0 -37 31z" />
<glyph unicode="w" horiz-adv-x="872" d="M40 491h126l52 -401h13q30 0 50 44q20 40 40 125q16 69 34 202q1 13 10.5 21t22.5 8h126q12 0 20 -7.5t10 -19.5l36 -373h11q22 0 42 39q30 55 57 135q28 89 47 226h125q-22 -113 -63.5 -234.5t-87.5 -189.5q-23 -35 -48.5 -50.5t-66.5 -15.5h-71q-15 0 -25 9t-12 23 l-32 382h-13q-8 -95 -29 -183q-24 -93 -51 -144q-24 -50 -58 -68.5t-81 -18.5h-67q-15 0 -25 9t-12 23z" />
<glyph unicode="x" horiz-adv-x="544" d="M-27 0l191 253l-109 237h119l83 -192h21l141 192h128l-177 -238l119 -252h-120l-94 210h-16l-154 -210h-132z" />
<glyph unicode="y" horiz-adv-x="560" d="M37 -122q65 15 112 40.5t90 81.5h-51q-23 0 -40 13.5t-21 35.5l-89 441h128l63 -384q3 -16 19 -16h46l13 27q81 175 115 373h127q-48 -239 -139 -412q-78 -147 -159 -207.5t-195 -74.5z" />
<glyph unicode="z" horiz-adv-x="515" d="M3 0l12 93l328 304h-280l12 93h420l-13 -93h1l-328 -304h289l-13 -93h-428z" />
<glyph unicode="{" horiz-adv-x="330" d="M37 288l10 82q39 11 51 22t18 53l26 189q11 76 61 110.5t152 23.5l-4 -75q-47 0 -68.5 -16.5t-27.5 -57.5l-23 -163q-8 -65 -30.5 -92t-82.5 -37q53 -17 71 -45.5t10 -81.5l-31 -220q-5 -40 9 -55t61 -15l-4 -75q-101 -11 -146.5 27t-34.5 112l34 246q3 24 -2 36.5 t-13.5 17t-35.5 14.5z" />
<glyph unicode="|" horiz-adv-x="253" d="M18 -169l133 950h87l-134 -950h-86z" />
<glyph unicode="}" horiz-adv-x="332" d="M-27 -165l6 75q47 0 68 16t26 57l31 221q9 55 33 81.5t86 43.5q-54 10 -71.5 39t-7.5 92l23 163q6 40 -8 55t-61 15l4 75q103 11 147.5 -28t34.5 -111l-27 -189q-5 -40 1 -50t37 -19l9 -3l-11 -82q-28 -9 -38.5 -14.5t-20.5 -19t-13 -37.5l-34 -246q-10 -76 -59 -110.5 t-155 -23.5z" />
<glyph unicode="~" horiz-adv-x="516" d="M58 223q0 68 26 102t64 32q36 -2 108.5 -27t89.5 -27q26 -3 37 9t16 42l57 -4q1 -67 -24 -100.5t-66 -31.5q-41 1 -112 26t-86 27q-26 4 -37 -8.5t-15 -43.5z" />
<glyph unicode="&#xa2;" horiz-adv-x="510" d="M52 352q20 140 79.5 196.5t187.5 56.5l23 -1l21 86h51l-22 -89q65 -9 99 -25l-17 -74q-74 2 -106 2l-73 -314q77 0 139 9l8 -81q-72 -27 -174 -29l-21 -89h-51l22 91q-106 9 -145 71t-21 190zM179 344q-10 -84 3.5 -115.5t61.5 -37.5l73 313q-67 -3 -97 -36t-41 -124z " />
<glyph unicode="&#xa3;" horiz-adv-x="575" d="M13 0l14 106q93 40 104 171l4 53h-77l9 68h73l10 122q9 110 59 146t156 36q88 0 197 -10l-14 -98q-70 3 -174 3q-54 0 -77 -18t-27 -68l-8 -113h192l-13 -68h-183l-4 -58q-6 -66 -27.5 -103t-69.5 -71q26 7 70 7h277l-14 -105h-477z" />
<glyph unicode="&#xa5;" horiz-adv-x="631" d="M65 150l9 67h165l3 21l-10 27h-150l8 68h118l-127 357h127l87 -270q13 -44 16 -84h10q10 41 37 87l164 267h136l-228 -357h117l-10 -68h-150l-21 -33l-2 -15h167l-10 -67h-166l-21 -150h-126l21 150h-164z" />
<glyph unicode="&#xa8;" horiz-adv-x="418" d="M127 615l9 58q4 30 35 30h38q17 0 23 -7t4 -23l-9 -58q-3 -28 -31 -28h-42q-30 0 -27 28zM296 615l9 58q4 30 35 30h38q33 0 27 -30l-9 -58q-3 -28 -31 -28h-42q-30 0 -27 28z" />
<glyph unicode="&#xa9;" horiz-adv-x="821" d="M58 350q19 154 126.5 253.5t268.5 99.5q163 0 253.5 -101t71.5 -262q-19 -155 -127.5 -254t-270.5 -99q-164 0 -253 102.5t-69 260.5zM120 340q-16 -133 56 -214t203 -81q134 0 227.5 85t109.5 220q15 130 -55 212.5t-204 82.5q-135 0 -228 -85t-109 -220zM229 351 q16 119 66 164t163 45q63 0 125 -14l-11 -68q-65 3 -109 3q-75 0 -103 -24.5t-40 -112.5q-10 -78 6 -104.5t72 -26.5q70 -1 141 4l5 -67q-64 -16 -135 -16q-119 0 -158 47t-22 170z" />
<glyph unicode="&#xab;" horiz-adv-x="496" d="M32 243l2 26l182 193l52 -43l-136 -168l98 -176l-60 -40zM228 243l2 26l182 193l52 -43l-136 -168l98 -176l-61 -40z" />
<glyph unicode="&#xad;" horiz-adv-x="427" d="M52 211l12 86h300l-12 -86h-300z" />
<glyph unicode="&#xae;" horiz-adv-x="538" d="M73 485q11 100 76 158.5t166 58.5q95 0 154 -59.5t48 -166.5q-11 -103 -75.5 -161t-164.5 -58q-103 0 -159.5 63.5t-44.5 164.5zM110 479q-9 -89 37.5 -138t129.5 -49q88 0 141.5 51t61.5 142q7 87 -38.5 135t-127.5 48q-89 0 -142 -52t-62 -137zM178 360l35 244 q35 3 109 3q48 0 72.5 -15t18.5 -61q-3 -24 -15 -37.5t-40 -20.5l-1 -2q18 -7 24 -37l18 -74h-56l-15 75q-4 13 -10 17.5t-18 4.5h-55l-14 -97h-53zM250 494h51q30 1 42.5 8t15.5 31q3 21 -5.5 27.5t-34.5 6.5h-59z" />
<glyph unicode="&#xb4;" horiz-adv-x="337" d="M99 584l206 148l52 -91l-225 -111z" />
<glyph unicode="&#xb8;" horiz-adv-x="242" d="M-36 -234l20 58q36 -1 63.5 17t33.5 47q2 12 -7.5 15.5t-47.5 3.5l14 53q72 8 102.5 -6t21.5 -63q-11 -68 -67 -102t-133 -23z" />
<glyph unicode="&#xbb;" horiz-adv-x="498" d="M20 75l136 168l-98 176l61 40l137 -207l-2 -27l-182 -193zM216 75l136 168l-98 176l60 40l138 -207l-2 -27l-182 -193z" />
<glyph unicode="&#x2c6;" horiz-adv-x="436" d="M92 588l147 131h85l126 -138l-41 -45l-125 100h-8l-152 -98z" />
<glyph unicode="&#x2da;" horiz-adv-x="305" d="M96 643q5 45 36 75.5t80 30.5q51 0 83 -32.5t26 -82.5q-6 -46 -37.5 -75.5t-80.5 -29.5q-52 0 -82.5 32.5t-24.5 81.5zM156 640q-3 -26 11 -40.5t37 -14.5q24 0 39 15.5t17 40.5q2 23 -11 37.5t-36 14.5q-24 0 -39.5 -15t-17.5 -38z" />
<glyph unicode="&#x2dc;" horiz-adv-x="431" d="M97 579q1 65 27 97.5t65 30.5q34 -3 79.5 -25t67.5 -25q27 -4 39.5 7.5t16.5 39.5l53 -5q0 -62 -25 -95t-65 -31q-39 3 -86.5 26t-63.5 26q-27 4 -39 -9t-16 -42z" />
<glyph unicode="&#x401;" horiz-adv-x="565" d="M51 154l57 410q8 61 49 94.5t111 33.5q215 0 304 -9l-16 -95h-266q-30 0 -43.5 -13t-17.5 -47l-17 -121h281l-12 -93h-281l-22 -155q-4 -32 7 -44.5t42 -12.5h260l-3 -96q-85 -8 -282 -8q-85 0 -123 41t-28 115zM248 807l9 59q4 29 35 29h38q18 0 23.5 -7t3.5 -22l-9 -58 q-3 -29 -32 -29h-42q-30 0 -26 28zM417 807l9 59q4 29 34 29h39q31 0 27 -29l-9 -58q-3 -29 -32 -29h-42q-30 0 -26 28z" />
<glyph unicode="&#x402;" horiz-adv-x="752" d="M59 583l16 107h547l-14 -107h-212l-28 -197q92 61 197 61q81 0 122 -47.5t23 -168.5q-21 -135 -93.5 -188.5t-197.5 -49.5l-6 90q86 8 122.5 38.5t49.5 107.5q12 71 -6 92t-58 21q-44 0 -81 -13t-87 -46l-39 -283h-126l82 583h-211z" />
<glyph unicode="&#x403;" horiz-adv-x="520" d="M34 0l77 551q9 69 50 105t101 36q208 0 295 -10l-16 -94h-238q-38 0 -51.5 -12.5t-19.5 -52.5l-73 -523h-125zM284 778l206 148l53 -91l-226 -111z" />
<glyph unicode="&#x404;" horiz-adv-x="579" d="M60 350q26 201 103.5 276.5t239.5 75.5q104 0 186 -23l-18 -94q-93 6 -162 6q-102 0 -145.5 -35t-65.5 -149h283l-11 -93h-286q-15 -124 10 -166.5t112 -48.5q82 -4 197 10l5 -96q-99 -30 -207 -25q-161 7 -214 88t-27 274z" />
<glyph unicode="&#x405;" horiz-adv-x="568" d="M20 11l14 91q175 -4 205 -4q81 0 109 16t35 72q6 43 -5.5 58.5t-51.5 29.5l-132 48q-72 27 -98 75.5t-16 123.5q16 110 74 145.5t181 35.5q128 0 216 -24l-13 -88q-118 4 -202 4q-32 0 -45.5 -0.5t-32.5 -4.5t-27 -13t-15 -24.5t-11 -40.5q-6 -43 5.5 -58t54.5 -30 l128 -46q77 -28 101.5 -74t13.5 -126q-15 -113 -71.5 -151t-192.5 -38q-114 0 -224 23z" />
<glyph unicode="&#x406;" horiz-adv-x="279" d="M36 0l97 690h126l-97 -690h-126z" />
<glyph unicode="&#x407;" horiz-adv-x="279" d="M35 0l97 690h126l-97 -690h-126zM74 791l10 58q4 30 34 30h38q18 0 24 -7t4 -23l-10 -57q-3 -29 -31 -29h-42q-30 0 -27 28zM243 791l10 58q4 30 34 30h38q18 0 24 -7t4 -23l-9 -57q-4 -29 -32 -29h-42q-30 0 -27 28z" />
<glyph unicode="&#x408;" horiz-adv-x="352" d="M-13 7l23 86h43q71 0 81 65l74 532h126l-76 -540q-11 -79 -52 -120t-107 -41q-69 0 -112 18z" />
<glyph unicode="&#x409;" horiz-adv-x="978" d="M-8 105q82 14 116 71q10 16 18.5 32.5t16.5 40.5t13.5 40t14.5 53t13.5 56.5t16.5 73t18 82.5q32 136 162 136h260l-37 -264h113q132 0 180.5 -50t31.5 -174q-17 -121 -69.5 -165.5t-171.5 -44.5q-175 0 -268 8l84 593h-86q-37 0 -54 -14.5t-25 -53.5q-6 -25 -22.5 -97 t-23 -95l-19.5 -69t-25 -74t-28 -55q-39 -69 -93 -101t-132 -36zM558 96h109q75 0 100.5 22.5t36.5 94.5q9 69 -8 93t-87 24h-118z" />
<glyph unicode="&#x40a;" horiz-adv-x="975" d="M37 0l97 690h126l-38 -267h255l38 267h123l-37 -266h115q129 0 178 -49.5t32 -174.5q-16 -120 -68.5 -164t-170.5 -44q-178 0 -269 8l45 325h-254l-46 -325h-126zM555 97l111 -1q74 0 99.5 22.5t35.5 92.5q10 67 -7 91t-87 24h-120z" />
<glyph unicode="&#x40b;" horiz-adv-x="769" d="M59 583l15 107h547l-14 -107h-212l-28 -197q108 62 208 62q86 0 122 -41t25 -124l-40 -283h-125l37 262q7 46 -8 62t-62 16q-78 0 -172 -59l-39 -281h-126l82 583h-210z" />
<glyph unicode="&#x40c;" horiz-adv-x="615" d="M36 0l97 690h125l-29 -206q-7 -47 -17 -77h55q38 0 66 13t60 61.5t45 74t56 118.5l8 16h130q-78 -173 -112 -224q-57 -87 -135 -103q-9 -2 -19 -3l-1 -4q36 -6 61 -22t40.5 -33t30.5 -64.5t22 -78.5t23 -113q6 -29 9 -45h-126q-34 177 -45 212q-23 74 -69 91q-22 8 -51 8 h-61q2 -33 -4 -70l-34 -241h-125zM305 778l206 148l52 -91l-225 -111z" />
<glyph unicode="&#x40d;" horiz-adv-x="699" d="M36 0l97 690h121l-61 -432q-7 -48 -24 -106h6q21 43 52 87l318 451h134l-97 -690h-121l62 433q8 58 22 105h-6q-30 -58 -48 -85l-321 -453h-134zM227 842l60 83l191 -148l-41 -53z" />
<glyph unicode="&#x40e;" horiz-adv-x="580" d="M43 8l20 90q43 -2 64.5 -2t41.5 2.5t31.5 13t21.5 23.5t26 40l13 23h-32q-61 0 -73 60l-89 432h125l68 -378q3 -12 16 -12h36l182 390h133l-247 -517q-41 -86 -84 -131t-106 -50q-73 -5 -147 16zM211 886l59 4q-4 -32 18.5 -48t67.5 -16q49 0 78.5 18t33.5 50l59 -12 q-3 -62 -50 -101.5t-122 -39.5q-79 0 -119 41.5t-25 103.5z" />
<glyph unicode="&#x40f;" horiz-adv-x="682" d="M37 0l97 690h126l-83 -593h275l82 593h127l-97 -690h-208l-26 -151h-87l17 151h-223z" />
<glyph unicode="&#x410;" horiz-adv-x="634" d="M-35 0l300 659q10 31 46 31h123q16 0 27.5 -10.5t12.5 -25.5l117 -654h-125l-29 194h-258l-83 -194h-131zM224 300h197l-35 234l-6 63h-30q-8 -21 -25 -62z" />
<glyph unicode="&#x411;" horiz-adv-x="604" d="M36 0l97 690q113 6 226 6q109 0 220 -6l-25 -102h-310l-26 -184h117q134 0 182.5 -46.5t31.5 -163.5q-17 -118 -70 -160.5t-173 -42.5q-165 0 -270 9zM174 94l114 -1q75 0 101 22t36 92q9 65 -8.5 85t-89.5 20h-122z" />
<glyph unicode="&#x412;" horiz-adv-x="626" d="M36 0l97 690q85 8 238 8q129 0 179.5 -40t35.5 -145q-11 -74 -43 -111t-95 -43l-1 -5q140 -11 114 -187q-16 -104 -69 -139.5t-176 -35.5q-184 0 -280 8zM172 94l124 -1q75 0 104.5 21.5t37.5 85.5q10 66 -12 88.5t-93 23.5h-131zM215 403h122q64 0 92 21.5t37 81.5 q7 56 -13.5 73.5t-87.5 17.5h-123z" />
<glyph unicode="&#x413;" horiz-adv-x="520" d="M34 0l77 551q9 69 50 105t101 36q208 0 295 -10l-16 -94h-238q-38 0 -51.5 -12.5t-19.5 -52.5l-73 -523h-125z" />
<glyph unicode="&#x414;" horiz-adv-x="715" d="M-43 -151q26 179 35 248h67q100 172 161 457q13 64 56 100t110 36h273l-83 -593h87q-8 -57 -34 -248h-97l12 151h-458l-32 -151h-97zM196 97h255l69 496h-102q-65 0 -78 -68q-57 -274 -144 -428z" />
<glyph unicode="&#x415;" horiz-adv-x="566" d="M51 154l57 410q9 61 50 94.5t110 33.5q215 0 305 -9l-16 -95h-266q-31 0 -44 -13t-18 -47l-16 -121h280l-12 -93h-281l-21 -155q-4 -32 6 -44.5t42 -12.5h261l-3 -96q-86 -8 -283 -8q-85 0 -123 41t-28 115z" />
<glyph unicode="&#x416;" horiz-adv-x="915" d="M-18 0q91 195 125 248q54 84 124 104q17 6 38 8l1 4q-17 3 -31.5 7.5t-26.5 14t-21.5 17t-18.5 25t-15 28t-13.5 36.5t-11.5 39.5t-11 47.5t-10 51.5t-11 59.5h122q32 -162 46 -201q26 -72 77 -80q9 -2 19 -2h61q-2 43 4 82l28 201h120l-30 -206q-8 -52 -16 -77h45 q27 0 50.5 12t44 34t41 56t42 76.5t47.5 97.5q1 2 1.5 3.5t1.5 3.5h128q-78 -171 -100 -208q-50 -87 -114 -110q-24 -9 -50 -12l-1 -4q28 -4 48.5 -13t37 -29.5t27.5 -41t22.5 -61t19 -75t20.5 -97.5q5 -26 8 -39h-125q-39 184 -45 206q-23 78 -64 97q-20 8 -46 8h-54 q2 -35 -3 -70l-33 -241h-121l35 245q4 25 16 66h-51q-62 0 -101 -50.5t-116 -206.5q-18 -35 -27 -54h-133z" />
<glyph unicode="&#x417;" horiz-adv-x="554" d="M-3 20l15 88q114 -16 213 -16q70 0 99.5 22t38.5 86q10 65 -12 88t-91 23h-127l12 93h121q62 0 89 21.5t35 80.5q8 58 -11.5 75.5t-85.5 17.5q-58 0 -190 -12l-4 93q84 18 205 18t173 -41.5t38 -143.5q-11 -75 -42 -111.5t-95 -42.5l-1 -5q135 -13 110 -187 q-14 -101 -65 -138t-174 -37q-146 0 -251 28z" />
<glyph unicode="&#x418;" horiz-adv-x="699" d="M36 0l97 690h121l-61 -432q-7 -48 -24 -106h6q21 43 52 87l318 451h134l-97 -690h-121l62 433q8 58 22 105h-6q-30 -58 -48 -85l-321 -453h-134z" />
<glyph unicode="&#x419;" horiz-adv-x="699" d="M36 0l97 690h121l-61 -432q-7 -48 -24 -106h6q21 43 52 87l318 451h134l-97 -690h-121l62 433q8 58 22 105h-6q-30 -58 -48 -85l-321 -453h-134zM276 888h86q-7 -44 9 -64t57 -20q71 0 78 84h87q-3 -65 -50 -106t-121 -41q-80 0 -120 41.5t-26 105.5z" />
<glyph unicode="&#x41a;" horiz-adv-x="615" d="M36 0l97 690h125l-29 -206q-7 -47 -17 -77h55q38 0 66 13t60 61.5t45 74t56 118.5l8 16h130q-78 -173 -112 -224q-57 -87 -135 -103q-9 -2 -19 -3l-1 -4q36 -6 61 -22t40.5 -33t30.5 -64.5t22 -78.5t23 -113q6 -29 9 -45h-126q-34 177 -45 212q-23 74 -69 91q-22 8 -51 8 h-61q2 -33 -4 -70l-34 -241h-125z" />
<glyph unicode="&#x41b;" horiz-adv-x="664" d="M-24 98q24 6 39.5 12t37 23.5t37.5 45.5q31 51 52 123.5t61 254.5q30 133 168 133h271l-97 -690h-125l84 593h-102q-38 0 -55.5 -15t-24.5 -53q-29 -124 -41.5 -175.5t-32.5 -111.5t-43 -103q-80 -149 -225 -137z" />
<glyph unicode="&#x41c;" horiz-adv-x="893" d="M23 0l116 643q9 47 52 47h126q40 0 46 -44l51 -374q5 -44 7 -95h16q20 57 34 92l150 381q14 39 56 40h128q24 0 36 -14t9 -37l-62 -639h-122l62 589h-17l-184 -461q-14 -40 -56 -40h-95q-44 0 -49 44l-61 457h-19l-102 -589h-122z" />
<glyph unicode="&#x41d;" horiz-adv-x="676" d="M36 0l97 690h126l-38 -271h271l38 271h125l-97 -690h-125l44 315h-271l-44 -315h-126z" />
<glyph unicode="&#x41e;" horiz-adv-x="672" d="M60 350q27 197 99 275t228 78q151 0 209 -82.5t31 -280.5q-27 -201 -99 -277t-225 -76t-211.5 81t-31.5 282zM191 340q-20 -142 4 -194t111 -52q88 0 128.5 54t61.5 202q22 145 -2.5 195.5t-111.5 50.5q-91 0 -130 -52.5t-61 -203.5z" />
<glyph unicode="&#x41f;" horiz-adv-x="677" d="M36 0l97 690h523l-97 -690h-126l83 593h-271l-83 -593h-126z" />
<glyph unicode="&#x420;" horiz-adv-x="598" d="M36 0l97 690q89 9 244 9q129 0 178.5 -51.5t31.5 -174.5q-18 -133 -71.5 -175.5t-181.5 -42.5q-74 0 -136 9l-37 -264h-125zM211 357h117q71 0 98 25t38 100q10 68 -10 91t-81 23h-128z" />
<glyph unicode="&#x421;" horiz-adv-x="574" d="M60 350q27 197 98 274.5t225 77.5q114 0 199 -23l-18 -94q-87 7 -184 7q-60 0 -94 -19.5t-57.5 -74t-37.5 -158.5q-20 -139 3 -190t106 -52q110 -1 203 10l6 -95q-84 -25 -212 -25q-153 0 -208.5 85.5t-28.5 276.5z" />
<glyph unicode="&#x422;" horiz-adv-x="584" d="M59 583l15 107h548l-15 -107h-212l-82 -583h-125l82 583h-211z" />
<glyph unicode="&#x423;" horiz-adv-x="580" d="M43 8l20 90q43 -2 64.5 -2t41.5 2.5t31.5 13t21.5 23.5t26 40l13 23h-32q-61 0 -73 60l-89 432h125l68 -378q3 -12 16 -12h36l182 390h133l-247 -517q-41 -86 -84 -131t-106 -50q-73 -5 -147 16z" />
<glyph unicode="&#x424;" horiz-adv-x="827" d="M49 355q21 150 100 212.5t253 69.5l12 93h126l-12 -94q166 -9 229 -75t41 -216q-20 -151 -98.5 -213.5t-253.5 -69.5l-13 -92h-125l12 93q-169 9 -231 74.5t-40 217.5zM176 345q-14 -101 19.5 -139t144.5 -43l53 373q-112 -7 -157.5 -47.5t-59.5 -143.5zM454 164 q111 7 157 47.5t61 143.5q14 100 -20.5 138.5t-143.5 43.5z" />
<glyph unicode="&#x425;" horiz-adv-x="623" d="M-26 0l234 355l-121 335h126l98 -288h20l186 288h135l-218 -335l133 -355h-127l-109 312h-19l-196 -312h-142z" />
<glyph unicode="&#x426;" horiz-adv-x="703" d="M37 0l97 690h126l-83 -593h262l83 593h125l-83 -593h87q-9 -72 -34 -248h-97l12 151h-495z" />
<glyph unicode="&#x427;" horiz-adv-x="637" d="M66 407l40 283h126l-36 -262q-8 -42 7.5 -60t59.5 -18q82 0 189 59l39 281h125l-97 -690h-125l43 308q-57 -33 -117.5 -50t-104.5 -17q-87 0 -123.5 41t-25.5 125z" />
<glyph unicode="&#x428;" horiz-adv-x="948" d="M36 0l97 690h123l-84 -593h214l83 593h122l-83 -593h213l84 593h122l-97 -690h-794z" />
<glyph unicode="&#x429;" horiz-adv-x="979" d="M37 0l97 690h123l-84 -593h211l84 593h122l-83 -593h211l83 593h122l-82 -593h85q-9 -72 -34 -248h-96l12 151h-771z" />
<glyph unicode="&#x42a;" horiz-adv-x="748" d="M57 583l16 107h338l-37 -264h113q132 0 180.5 -50t31.5 -174q-17 -121 -69.5 -165.5t-172.5 -44.5q-175 0 -268 8l82 583h-214zM328 96h109q75 0 100.5 22.5t36.5 94.5q9 69 -8 93t-87 24h-119z" />
<glyph unicode="&#x42b;" horiz-adv-x="872" d="M36 0l97 690h126l-37 -264h114q132 0 180.5 -49.5t31.5 -174.5q-16 -121 -69 -165.5t-172 -44.5q-177 0 -271 8zM175 96h111q75 0 100.5 22.5t36.5 94.5q10 69 -7 93t-88 24h-120zM627 0l97 690h126l-97 -690h-126z" />
<glyph unicode="&#x42c;" horiz-adv-x="598" d="M36 0l97 690h126l-37 -264h115q132 0 180.5 -50t31.5 -174q-17 -121 -69.5 -165.5t-172.5 -44.5q-177 0 -271 8zM175 96h112q75 0 100.5 22.5t36.5 94.5q9 69 -8 93t-87 24h-121z" />
<glyph unicode="&#x42d;" horiz-adv-x="580" d="M1 15l17 94q93 -14 191 -10q90 5 130.5 50.5t62.5 165.5h-286l12 93h288q6 62 0 99.5t-27.5 55.5t-47.5 23t-73 5q-76 0 -170 -6l-5 95q85 22 184 22q167 0 226 -79.5t32 -282.5q-25 -194 -98 -270.5t-229 -81.5q-117 -4 -207 27z" />
<glyph unicode="&#x42e;" horiz-adv-x="947" d="M37 0l97 690h126l-40 -284h140q31 167 99 232t202 65q148 0 208.5 -82.5t32.5 -280.5q-29 -202 -100 -277.5t-227 -75.5q-142 0 -195.5 72.5t-33.5 249.5h-140l-43 -309h-126zM472 340q-20 -142 2 -194t104 -52q90 0 131.5 55t61.5 201q20 142 -3.5 194t-108.5 52 q-86 0 -126 -54.5t-61 -201.5z" />
<glyph unicode="&#x42f;" horiz-adv-x="623" d="M-7 0l88 214q45 97 117 100l1 4q-66 10 -92 66.5t-16 128.5q15 104 75.5 145t179.5 41q151 0 256 -9l-97 -690h-126l38 271l-115 -1q-35 0 -56 -15t-35 -51l-82 -204h-136zM217 495q-9 -62 11 -92t78 -30h125l32 223h-117q-63 0 -91.5 -21.5t-37.5 -79.5z" />
<glyph unicode="&#x430;" horiz-adv-x="585" d="M43 253q12 83 33.5 134.5t56.5 76.5t70.5 32.5t92.5 7.5q128 0 246 -29l-67 -475h-95l2 85q-82 -96 -204 -97q-91 -1 -123.5 59t-11.5 206zM165 247q-13 -103 -4.5 -130t49.5 -27q42 0 81 23.5t88 73.5l32 219l-89 1q-87 0 -114.5 -27t-42.5 -133z" />
<glyph unicode="&#x431;" d="M63 310q12 85 25 137.5t37.5 102t64 79t98.5 47.5q42 13 125 23t137 27l11 -106q-56 -18 -128 -23.5t-105 -14.5q-66 -16 -93.5 -46t-47.5 -83q-15 -33 -24 -70l1 1q32 42 73 66.5t113 24.5q115 0 152 -62t24 -176q-16 -132 -77.5 -190.5t-183.5 -58.5q-50 0 -87.5 9.5 t-61.5 24t-38.5 40t-21 49.5t-6 61t3.5 65.5t9 72.5zM178 236q-11 -85 7 -118t80 -33q61 0 91 33.5t44 125.5q12 82 -4.5 109t-75.5 27q-75 0 -103.5 -32.5t-38.5 -111.5z" />
<glyph unicode="&#x432;" horiz-adv-x="550" d="M43 253q12 79 31 127.5t52.5 76.5t76 37.5t109.5 9.5q31 0 55.5 -2.5t54.5 -11t48 -23.5t27 -42t2 -64q-18 -90 -131 -99l-1 -4q71 -4 98.5 -38.5t17.5 -102.5q-12 -72 -63 -101t-170 -29q-57 0 -95 7t-66.5 24.5t-39.5 47.5t-14.5 76.5t8.5 110.5zM157 209 q-6 -35 -3.5 -58.5t5 -37.5t15 -21.5t26 -9.5t37.5 -2q66 0 94 14.5t34 55.5q5 41 -15 57.5t-82 11.5zM170 289l102 10q61 6 83.5 19.5t28.5 37.5q7 31 -13 43t-76 12q-63 0 -87 -23t-38 -99z" />
<glyph unicode="&#x433;" horiz-adv-x="526" d="M20 127q6 53 39 84.5t98 55.5l123 47q50 17 69.5 31t20.5 34q2 19 -17.5 24.5t-85.5 2.5q-70 -2 -194 -26l-2 90q91 29 209 34q48 2 82 -1t66.5 -14.5t47.5 -38t11 -68.5q-4 -36 -19.5 -63.5t-43.5 -46.5t-41 -25t-42 -17q-2 -1 -4 -1.5t-3 -1.5l-134 -52 q-34 -13 -46.5 -24t-14.5 -27q-2 -24 16 -31t60 -5q120 3 233 36l5 -93q-114 -44 -241 -44q-100 0 -150 34t-42 106z" />
<glyph unicode="&#x434;" horiz-adv-x="574" d="M44 222q28 228 227 228q82 0 132 -44q-3 59 -20.5 98t-54.5 63t-78 37t-108 25l18 85q97 -11 166 -37.5t120.5 -75t70 -129.5t3.5 -192q-21 -152 -83.5 -222.5t-193.5 -70.5q-117 0 -166 58t-33 177zM170 216q-10 -73 8 -102.5t73 -29.5q66 0 97 46t47 163l5 34 q-44 27 -98 27q-62 0 -91.5 -33t-40.5 -105z" />
<glyph unicode="&#x435;" horiz-adv-x="548" d="M40 258q19 141 79 193.5t198 52.5q122 0 164.5 -41.5t31.5 -121.5q-10 -72 -56 -104t-141 -38l-155 -13q1 -58 28 -78.5t82 -20.5q83 0 184 12l8 -79q-77 -32 -208 -32t-182 66.5t-33 203.5zM168 268l140 12q42 3 61.5 18.5t24.5 53.5q3 38 -15 47t-77 9 q-66 -1 -93 -28.5t-41 -111.5z" />
<glyph unicode="&#x436;" horiz-adv-x="769" d="M-16 0q9 17 24 47q25 49 36 70t28.5 50t28.5 39.5t29 23.5t36.5 18t44.5 8l1 4q-68 8 -91 50.5t-51 179.5h116q24 -116 43 -154t68 -38h43q-1 26 2 59l19 133h108l-20 -136q-6 -38 -12 -56h31q49 0 80.5 38.5t90.5 153.5h120l-6 -12q-65 -131 -94 -166q-42 -49 -110 -56 l-1 -3q36 -5 57 -16.5t37 -39.5t26.5 -65t27.5 -106q4 -17 6 -26h-115q-2 10 -6 28q-29 122 -46 149q-20 33 -67 34h-45q2 -27 -1 -46l-22 -165h-108l25 169q1 16 10 42h-41q-49 -1 -79.5 -39.5t-99.5 -171.5h-123z" />
<glyph unicode="&#x437;" horiz-adv-x="506" d="M-4 8l15 88q101 -9 188 -9q70 0 92 12t27 51q4 34 -14.5 45.5t-76.5 12.5l-133 2l10 81h127q55 0 77.5 13.5t27.5 50.5q5 31 -12.5 39.5t-86.5 8.5q-88 0 -164 -9l-4 88q67 19 169 19q125 0 176 -28t40 -109q-8 -54 -34 -80t-85 -31l-1 -3q63 -5 87.5 -37.5t15.5 -95.5 q-11 -79 -60.5 -103.5t-168.5 -24.5q-121 0 -212 19z" />
<glyph unicode="&#x438;" d="M43 125l51 365h121l-47 -333q-6 -37 3.5 -52t38.5 -15q37 0 72 21t95 73l42 306h120l-68 -490h-94l4 97q-116 -110 -218 -110q-68 0 -99 37t-21 101z" />
<glyph unicode="&#x439;" d="M43 125l51 365h121l-47 -333q-6 -37 3.5 -52t38.5 -15q37 0 72 21t95 73l42 306h120l-68 -490h-94l4 97q-116 -110 -218 -110q-68 0 -99 37t-21 101zM185 708h86q-7 -44 9 -64t57 -20q71 0 78 84h86q-2 -65 -49 -106t-121 -41q-80 0 -120 41.5t-26 105.5z" />
<glyph unicode="&#x43a;" horiz-adv-x="546" d="M28 0l69 490h120l-18 -136q-4 -25 -14 -55h46q60 0 91.5 37.5t84.5 153.5h129q-26 -54 -37 -76.5t-29.5 -55.5t-30 -45t-30.5 -27t-38.5 -21t-46.5 -9l-1 -4q31 -3 51.5 -12t34.5 -21.5t24.5 -42t18 -58t20.5 -86.5q4 -21 7 -32h-120q-2 11 -7 30q-26 117 -43 144 q-21 35 -74 36h-3h-59q2 -23 -1 -46l-24 -164h-120z" />
<glyph unicode="&#x43b;" horiz-adv-x="579" d="M-15 91q5 1 16.5 2.5t16 2.5t13.5 3.5t14 6.5t11.5 9.5t12 14t10.5 20.5q36 84 71 222q16 61 49 89.5t94 28.5h245l-69 -490h-121l56 400h-76q-28 0 -42.5 -13t-23.5 -46q-30 -119 -74 -234q-25 -68 -73 -92.5t-121 -19.5z" />
<glyph unicode="&#x43c;" horiz-adv-x="764" d="M19 0l79 448q4 23 15 32.5t33 9.5h114q36 0 41 -40l41 -234q8 -60 9 -80h14q22 64 27 74l110 245q16 35 49 35h117q21 0 32 -12t9 -33l-45 -445h-110l39 401h-15l-136 -306q-14 -36 -48 -36h-82q-37 0 -42 40l-54 302h-16l-71 -401h-110z" />
<glyph unicode="&#x43d;" horiz-adv-x="590" d="M28 0l69 490h119l-26 -186h213l27 186h119l-69 -490h-119l30 215h-213l-30 -215h-120z" />
<glyph unicode="&#x43e;" horiz-adv-x="577" d="M40 249q19 139 80.5 197t191.5 58t181 -61.5t31 -202.5q-19 -138 -80.5 -195.5t-189.5 -57.5q-130 0 -181.5 61t-32.5 201zM166 240q-13 -92 5 -124t84 -32q69 0 100 34.5t44 130.5q13 94 -4.5 126t-82.5 32q-70 0 -100.5 -34t-45.5 -133z" />
<glyph unicode="&#x43f;" horiz-adv-x="591" d="M28 0l69 490h96l-3 -101q124 115 228 115q62 0 94.5 -36t23.5 -102l-52 -366h-121l46 332q5 41 -2.5 55.5t-33.5 13.5q-38 0 -78 -22t-104 -72l-42 -307h-121z" />
<glyph unicode="&#x440;" horiz-adv-x="588" d="M0 -195l98 685h95l-3 -98q46 46 102.5 78t106.5 32q58 0 89.5 -22.5t44.5 -81t-3 -160.5q-11 -81 -31.5 -133t-53 -77t-66 -33t-83.5 -8q-67 0 -151 13q0 -55 -7 -93l-16 -102h-122zM163 81l88 -1q88 0 114.5 27.5t41.5 135.5q13 103 4 130t-48 27q-29 0 -75.5 -25 t-94.5 -69z" />
<glyph unicode="&#x441;" horiz-adv-x="498" d="M40 250q20 140 79.5 197t187.5 57q107 0 173 -29l-18 -74q-100 2 -137 2q-79 0 -113 -31.5t-46 -128.5q-12 -98 9.5 -126.5t96.5 -28.5q84 0 150 10l8 -81q-75 -29 -181 -29q-131 0 -180 61t-29 201z" />
<glyph unicode="&#x442;" horiz-adv-x="877" d="M28 0l69 490h93l-2 -97q108 111 205 111q55 0 85 -27t33 -75q53 54 99 78t95 24q65 0 95.5 -37t21.5 -101l-52 -366h-120l46 334q6 38 -4.5 52.5t-37.5 14.5q-31 0 -62 -19.5t-92 -75.5l-42 -306h-117l46 334q5 36 -3.5 51.5t-38.5 15.5q-32 0 -63.5 -19t-90.5 -72 l-43 -310h-120z" />
<glyph unicode="&#x443;" horiz-adv-x="562" d="M4 -204l10 93q132 -25 229 111h-54q-23 0 -39.5 13.5t-21.5 35.5l-88 441h128l63 -384q2 -16 18 -16h47l13 27q81 162 115 373h127q-45 -225 -138 -412q-86 -179 -187 -242.5t-222 -39.5z" />
<glyph unicode="&#x444;" horiz-adv-x="731" d="M39 249q18 130 86.5 188.5t214.5 65.5l28 197h110l-26 -198q139 -10 192 -71.5t34 -190.5q-17 -129 -85.5 -186.5t-214.5 -64.5l-25 -184h-111l25 185q-140 10 -193 70.5t-35 188.5zM155 241q-11 -83 17 -117t114 -39l46 321q-87 -7 -126 -43.5t-51 -121.5zM386 85 q87 7 126 43t51 120q11 85 -16.5 119.5t-113.5 39.5z" />
<glyph unicode="&#x445;" horiz-adv-x="544" d="M-27 0l191 253l-109 237h119l83 -192h21l141 192h128l-177 -238l119 -252h-120l-94 210h-16l-154 -210h-132z" />
<glyph unicode="&#x446;" horiz-adv-x="614" d="M43 125l51 365h121l-47 -333q-6 -37 3.5 -52t38.5 -15q37 0 72 21t95 73l42 306h120l-52 -386q-1 -8 3.5 -13.5t12.5 -5.5h56q-8 -55 -33 -234h-102l34 149q-37 2 -59 26.5t-20 69.5q-112 -109 -216 -109q-68 0 -99 37t-21 101z" />
<glyph unicode="&#x447;" horiz-adv-x="552" d="M44 277l31 213h121l-25 -180q-4 -33 5 -43.5t43 -10.5q66 0 143 44l26 190h123l-69 -490h-122l28 202q-89 -41 -171 -41q-75 -1 -108 28t-25 88z" />
<glyph unicode="&#x448;" horiz-adv-x="861" d="M43 125l51 365h120l-46 -333q-6 -34 5 -47.5t41 -13.5t55 16.5t86 72.5l43 305h117l-47 -333q-5 -33 4.5 -47t40.5 -14q32 0 56.5 16t86.5 69l43 309h120l-69 -490h-94l3 97q-103 -110 -197 -110q-54 0 -84 26.5t-33 74.5q-95 -101 -186 -101q-65 0 -95.5 37t-20.5 101z " />
<glyph unicode="&#x449;" horiz-adv-x="893" d="M43 125l51 365h120l-46 -333q-5 -23 0 -36.5t15.5 -19t30.5 -5.5q30 0 55 16.5t86 72.5l43 305h117l-47 -333q-5 -33 4.5 -47t40.5 -14q32 0 56.5 16t87.5 70l41 308h121l-53 -386q0 -5 1.5 -9.5t5.5 -7t9 -2.5h56q-8 -55 -33 -234h-102l38 149q-39 1 -62 25.5t-20 70.5 v1q-103 -110 -197 -110q-54 0 -84 26.5t-33 74.5q-95 -101 -186 -101q-65 0 -95.5 37t-20.5 101z" />
<glyph unicode="&#x44a;" horiz-adv-x="637" d="M34 397l14 93h323l-48 -187q41 11 77 11q116 -1 156 -36.5t26 -128.5q-14 -91 -60 -123.5t-149 -32.5q-20 0 -35 0.5t-36 2t-36 5t-33 10t-29.5 15t-22 22t-15 30.5t-4 40t7.5 50l61 229h-197zM283 150q-9 -38 11.5 -51.5t64.5 -13.5q52 0 73 15.5t30 60.5q8 41 -7.5 55 t-67.5 14q-38 0 -86 -10z" />
<glyph unicode="&#x44b;" horiz-adv-x="746" d="M44 141l50 349h117l-28 -193q56 17 98 17q116 -1 155.5 -36.5t26.5 -128.5q-12 -90 -59 -123t-150 -33q-30 0 -47.5 1t-48 4.5t-48.5 13t-36.5 25t-26 42t-3.5 62.5zM161 140q-5 -33 14.5 -44t64.5 -11q52 0 74 15.5t29 60.5q5 41 -9.5 55t-65.5 14q-48 0 -96 -13zM514 0 l69 490h121l-69 -490h-121z" />
<glyph unicode="&#x44c;" horiz-adv-x="518" d="M44 141l50 349h117l-28 -193q56 17 98 17q116 -1 155.5 -36.5t26.5 -128.5q-12 -91 -58.5 -123.5t-149.5 -32.5q-31 0 -48 1t-48 4.5t-49 13t-36.5 25t-26 42t-3.5 62.5zM161 140q-5 -33 14.5 -44t64.5 -11q52 0 74.5 15.5t28.5 60.5q6 41 -8.5 55t-66.5 14 q-48 0 -96 -13z" />
<glyph unicode="&#x44d;" horiz-adv-x="519" d="M-1 13l16 81q64 -5 146 -5q89 -3 124.5 20.5t51.5 99.5h-245l11 81h245q2 38 -3 60.5t-23.5 33.5t-39.5 13.5t-62 2.5q-66 0 -151 -3l-5 82q68 20 164 20q145 0 200 -56.5t37 -204.5q-18 -143 -82.5 -197t-207.5 -52q-106 0 -176 24z" />
<glyph unicode="&#x44e;" horiz-adv-x="813" d="M29 0l69 490h120l-27 -193h108q24 118 80 162.5t169 44.5q132 0 181.5 -57t29.5 -206q-21 -145 -79.5 -197.5t-190.5 -52.5q-119 0 -166 47t-37 169h-108l-29 -207h-120zM404 243q-13 -91 4.5 -122.5t80.5 -31.5q70 0 100.5 34t43.5 127q13 91 -5.5 122.5t-83.5 31.5 q-68 0 -97.5 -33.5t-42.5 -127.5z" />
<glyph unicode="&#x44f;" horiz-adv-x="549" d="M-4 0l49 145q13 36 44 53.5t64 14.5l1 4q-105 22 -91 137q10 89 65 116.5t183 27.5q126 0 198 -7l-70 -491h-118l24 173h-96q-69 0 -85 -45l-46 -128h-122zM178 337q-6 -45 8.5 -62t61.5 -17h109l21 146l-111 1q-49 0 -66 -13.5t-23 -54.5z" />
<glyph unicode="&#x451;" horiz-adv-x="548" d="M40 258q19 141 79 193.5t198 52.5q122 0 164.5 -41.5t31.5 -121.5q-10 -72 -56 -104t-141 -38l-155 -13q1 -58 28 -78.5t82 -20.5q83 0 184 12l8 -79q-77 -32 -208 -32t-182 66.5t-33 203.5zM168 268l140 12q42 3 61.5 18.5t24.5 53.5q3 38 -15 47t-77 9 q-66 -1 -93 -28.5t-41 -111.5zM193 611l10 58q4 30 34 30h38q33 0 28 -30l-10 -58q-3 -28 -31 -28h-42q-30 0 -27 28zM362 611l10 58q4 30 34 30h38q32 0 28 -30l-9 -58q-4 -28 -32 -28h-42q-30 0 -27 28z" />
<glyph unicode="&#x452;" horiz-adv-x="590" d="M47 0l69 488h-67l9 63h67l21 149h121l-21 -149h178l-8 -63h-179l-12 -86q-4 -40 -16 -80q109 86 209 86q70 0 101.5 -35.5t21.5 -102.5l-38 -270h-121l34 238q5 37 -6.5 50.5t-49.5 13.5q-60 0 -161 -72l-30 -230h-122z" />
<glyph unicode="&#x453;" horiz-adv-x="526" d="M20 127q6 53 39 84.5t98 55.5l123 47q50 17 69.5 31t20.5 34q2 19 -17.5 24.5t-85.5 2.5q-70 -2 -194 -26l-2 90q91 29 209 34q48 2 82 -1t66.5 -14.5t47.5 -38t11 -68.5q-4 -36 -19.5 -63.5t-43.5 -46.5t-41 -25t-42 -17q-2 -1 -4 -1.5t-3 -1.5l-134 -52 q-34 -13 -46.5 -24t-14.5 -27q-2 -24 16 -31t60 -5q120 3 233 36l5 -93q-114 -44 -241 -44q-100 0 -150 34t-42 106zM201 598l206 148l52 -91l-225 -111z" />
<glyph unicode="&#x454;" horiz-adv-x="517" d="M40 248q19 145 84.5 198t203.5 53q105 0 170 -22l-16 -80q-18 0 -50 1t-57 1.5t-44 0.5q-80 0 -113 -20.5t-48 -89.5h246l-10 -81h-248q-6 -74 19.5 -95.5t110.5 -24.5q57 -2 153 5l6 -82q-72 -23 -180 -23q-132 0 -188.5 59t-38.5 200z" />
<glyph unicode="&#x455;" horiz-adv-x="518" d="M16 5l13 85q52 -4 152 -4q90 0 120 8t34 31q3 5 0.5 10.5t-1.5 8t-4 6.5t-6.5 5.5t-8.5 5t-10.5 5t-13 5.5t-15.5 7l-124 56q-57 26 -80 61t-17 87q7 68 57.5 95.5t155.5 26.5q115 -2 217 -18l-14 -83q-93 3 -195 3q-61 0 -81.5 -5t-22.5 -27q-3 -21 9 -31t47 -25 l125 -56q62 -27 84.5 -58.5t15.5 -86.5q-4 -34 -17 -57t-31.5 -37t-49 -21.5t-61.5 -10t-77 -2.5q-38 0 -67 1.5t-43.5 3t-43.5 5.5t-47 6z" />
<glyph unicode="&#x456;" horiz-adv-x="267" d="M33 0l68 490h120l-68 -490h-120zM116 616l8 54q3 33 37 33h55q18 0 26.5 -10t6.5 -27l-7 -55q-4 -33 -38 -33h-55q-38 0 -33 38z" />
<glyph unicode="&#x457;" horiz-adv-x="264" d="M30 0l69 490h121l-69 -490h-121zM41 611l9 58q4 30 35 30h38q33 0 27 -30l-9 -58q-3 -28 -31 -28h-42q-30 0 -27 28zM210 611l9 58q6 30 35 30h38q33 0 27 -30l-9 -58q-3 -28 -31 -28h-42q-30 0 -27 28z" />
<glyph unicode="&#x458;" horiz-adv-x="267" d="M-48 -144q68 68 81 155l68 479h121l-69 -485q-8 -63 -44 -118.5t-91 -87.5zM116 616l8 54q3 33 37 33h55q18 0 26.5 -10t6.5 -27l-7 -55q-6 -33 -38 -33h-55q-39 0 -33 38z" />
<glyph unicode="&#x459;" horiz-adv-x="816" d="M-15 88q55 6 89 53q5 7 10 15.5t9 15.5t8 18t7 18t7.5 22.5t6.5 23.5t7 28.5t7.5 30.5t8.5 36l9 39q24 102 128 102h221l-28 -195q57 19 119 19q107 -1 143 -39.5t24 -125.5q-13 -92 -59 -122.5t-149 -32.5q-52 -1 -88.5 4t-68 20t-45 45.5t-8.5 77.5l37 263h-60 q-27 0 -41 -10.5t-20 -35.5q-19 -81 -27.5 -112.5t-22.5 -72t-32 -71.5q-35 -65 -81.5 -87t-105.5 -19zM453 140q-4 -32 15.5 -43.5t66.5 -11.5q55 0 77 15.5t29 60.5q5 41 -9 55t-60 14q-50 0 -108 -14z" />
<glyph unicode="&#x45a;" horiz-adv-x="822" d="M28 0l69 490h111l-25 -180h190l25 180h114l-27 -194q56 18 100 18q116 -1 155.5 -36.5t26.5 -128.5q-12 -90 -59 -122.5t-150 -32.5q-27 0 -40.5 0.5t-41 3t-43 7.5t-35.5 16t-30 26t-16 39t-3 55l12 86h-190l-32 -227h-111zM462 140q-4 -33 16 -44t66 -11q52 0 74 15.5 t28 60.5q6 41 -8.5 55t-65.5 14q-44 0 -99 -13z" />
<glyph unicode="&#x45b;" horiz-adv-x="589" d="M47 0l69 488h-67l9 63h67l21 149h121l-21 -149h178l-8 -63h-179l-9 -67q-8 -55 -20 -99q111 86 210 86q141 0 123 -138l-37 -265q-9 -64 -45 -119t-90 -87l-65 57q67 69 80 155l32 228q5 36 -7 49.5t-49 13.5q-60 0 -161 -72l-30 -230h-122z" />
<glyph unicode="&#x45c;" horiz-adv-x="546" d="M28 0l69 490h120l-18 -136q-4 -25 -14 -55h46q60 0 91.5 37.5t84.5 153.5h129q-26 -54 -37 -76.5t-29.5 -55.5t-30 -45t-30.5 -27t-38.5 -21t-46.5 -9l-1 -4q31 -3 51.5 -12t34.5 -21.5t24.5 -42t18 -58t20.5 -86.5q4 -21 7 -32h-120q-2 11 -7 30q-26 117 -43 144 q-21 35 -74 36h-3h-59q2 -23 -1 -46l-24 -164h-120zM250 598l206 148l52 -91l-225 -111z" />
<glyph unicode="&#x45d;" d="M43 125l51 365h121l-47 -333q-6 -37 3.5 -52t38.5 -15q37 0 72 21t95 73l42 306h120l-68 -490h-94l4 97q-116 -110 -218 -110q-68 0 -99 37t-21 101zM136 661l60 84l191 -148l-41 -53z" />
<glyph unicode="&#x45e;" horiz-adv-x="562" d="M4 -204l10 93q132 -25 229 111h-54q-23 0 -39.5 13.5t-21.5 35.5l-88 441h128l63 -384q2 -16 18 -16h47l13 27q81 162 115 373h127q-45 -225 -138 -412q-86 -179 -187 -242.5t-222 -39.5zM164 708h86q-8 -44 8.5 -64t57.5 -20q36 0 55 20t23 64h86q-3 -65 -49.5 -106 t-121.5 -41q-79 0 -119 41.5t-26 105.5z" />
<glyph unicode="&#x45f;" d="M43 125l51 365h121l-47 -333q-6 -37 3.5 -52t38.5 -15q37 0 72 21t95 73l42 306h120l-68 -490h-94l4 97q-116 -110 -218 -110q-68 0 -99 37t-21 101zM186 -237l40 195h80l-18 -195h-102z" />
<glyph unicode="&#x490;" horiz-adv-x="528" d="M34 0l77 551q10 68 49.5 104.5t101.5 36.5q143 0 210 -5l32 154h85q-32 -205 -40 -253h-246q-35 0 -50 -13t-21 -52l-73 -523h-125z" />
<glyph unicode="&#x491;" horiz-adv-x="464" d="M26 0l53 383q16 112 127 112q116 0 174 -3l31 143h83l-23 -151l-14 -85h-201q-54 0 -62 -54l-48 -345h-120z" />
<glyph unicode="&#x4b0;" horiz-adv-x="595" d="M65 690h129l88 -270q9 -31 15 -84l10 3q16 43 38 84l165 267h134l-260 -407h118l-10 -72h-143l-30 -211h-126l30 211h-144l10 72h121z" />
<glyph unicode="&#x4b1;" horiz-adv-x="597" d="M35 490h127l88 -270q14 -46 15 -84h10q11 42 38 87l164 267h135l-257 -403h119l-10 -75h-146l-29 -210h-126l29 210h-141l10 75h118z" />
<glyph unicode="&#x4b6;" horiz-adv-x="682" d="M67 408l40 282h125l-35 -261q-8 -44 7.5 -61.5t65.5 -17.5q45 0 89.5 13.5t102.5 45.5l39 281h126l-85 -605h88q-6 -53 -33 -236h-96l13 151h-110l44 306q-121 -64 -237 -64q-168 0 -144 166z" />
<glyph unicode="&#x4b7;" horiz-adv-x="582" d="M44 277l31 213h121l-25 -180q-5 -33 4.5 -43.5t43.5 -10.5q66 0 143 44l27 190h122l-58 -397h73q-7 -58 -32 -236h-111l39 143h-102l29 202q-91 -41 -172 -41q-75 -1 -108 28t-25 88z" />
<glyph unicode="&#x4ba;" horiz-adv-x="647" d="M36 0l97 690h126l-43 -305q120 63 235 63q168 0 144 -166l-39 -282h-126l37 261q6 44 -9 61.5t-65 17.5q-84 0 -191 -59l-40 -281h-126z" />
<glyph unicode="&#x4c0;" horiz-adv-x="281" d="M37 0l97 690h126l-97 -690h-126z" />
<glyph unicode="&#x2000;" horiz-adv-x="463" />
<glyph unicode="&#x2001;" horiz-adv-x="926" />
<glyph unicode="&#x2002;" horiz-adv-x="463" />
<glyph unicode="&#x2003;" horiz-adv-x="926" />
<glyph unicode="&#x2004;" horiz-adv-x="308" />
<glyph unicode="&#x2005;" horiz-adv-x="231" />
<glyph unicode="&#x2006;" horiz-adv-x="154" />
<glyph unicode="&#x2007;" horiz-adv-x="154" />
<glyph unicode="&#x2008;" horiz-adv-x="115" />
<glyph unicode="&#x2009;" horiz-adv-x="185" />
<glyph unicode="&#x200a;" horiz-adv-x="51" />
<glyph unicode="&#x2010;" horiz-adv-x="427" d="M52 211l12 86h300l-12 -86h-300z" />
<glyph unicode="&#x2011;" horiz-adv-x="427" d="M52 211l12 86h300l-12 -86h-300z" />
<glyph unicode="&#x2012;" horiz-adv-x="427" d="M52 211l12 86h300l-12 -86h-300z" />
<glyph unicode="&#x2013;" horiz-adv-x="574" d="M52 211l12 86h446l-12 -86h-446z" />
<glyph unicode="&#x2014;" horiz-adv-x="874" d="M52 211l12 86h746l-12 -86h-746z" />
<glyph unicode="&#x2018;" horiz-adv-x="225" d="M83 508l8 58q12 76 66 155l56 -18q-29 -78 -36 -113q19 1 28 -8.5t7 -26.5l-8 -50q-4 -22 -15 -30t-37 -8h-31q-24 0 -33 9.5t-5 31.5z" />
<glyph unicode="&#x2019;" horiz-adv-x="223" d="M94 475q26 71 36 114q-20 -1 -28.5 8t-6.5 26l7 51q5 22 15.5 29.5t36.5 7.5h32q45 0 37 -41l-8 -58q-10 -73 -65 -155z" />
<glyph unicode="&#x201a;" horiz-adv-x="235" d="M20 -114q25 67 36 113q-20 -1 -28.5 8.5t-6.5 26.5l7 50q5 22 15.5 30t36.5 8h32q45 0 37 -42l-8 -58q-10 -74 -65 -154z" />
<glyph unicode="&#x201c;" horiz-adv-x="396" d="M83 508l8 58q12 76 66 155l56 -18q-29 -78 -36 -113q19 1 28 -8.5t7 -26.5l-8 -50q-4 -22 -15 -30t-37 -8h-31q-24 0 -33 9.5t-5 31.5zM255 508l8 58q10 75 65 155l56 -18q-26 -72 -36 -113q20 1 28.5 -8.5t6.5 -26.5l-7 -50q-5 -23 -15.5 -30.5t-36.5 -7.5h-32 q-45 0 -37 41z" />
<glyph unicode="&#x201d;" horiz-adv-x="394" d="M94 475q26 71 36 114q-20 -1 -28.5 8t-6.5 26l7 51q5 22 15.5 29.5t36.5 7.5h32q45 0 37 -41l-8 -58q-10 -73 -65 -155zM265 475q29 77 36 114q-19 -1 -28 8t-7 26l8 51q5 22 15.5 29.5t36.5 7.5h31q24 0 33 -9.5t5 -31.5l-8 -58q-11 -74 -66 -155z" />
<glyph unicode="&#x201e;" horiz-adv-x="407" d="M20 -115q26 72 36 113q-20 -1 -28.5 8.5t-6.5 26.5l7 50q5 22 15.5 30t36.5 8h32q45 0 37 -41l-8 -59q-10 -74 -65 -154zM191 -115q29 78 36 113q-19 -1 -28 8.5t-7 26.5l8 50q4 22 15 30t37 8h31q24 0 33 -9.5t5 -31.5l-8 -59q-12 -75 -66 -154z" />
<glyph unicode="&#x2026;" horiz-adv-x="875" d="M10 46l7 51q6 40 47 40h35q47 0 41 -45l-7 -51q-6 -41 -46 -41h-36q-48 0 -41 46zM330 46l7 51q6 40 47 40h35q47 0 41 -45l-7 -51q-6 -41 -46 -41h-36q-48 0 -41 46zM650 46l7 51q6 40 47 40h35q47 0 41 -45l-7 -51q-6 -41 -46 -41h-36q-48 0 -41 46z" />
<glyph unicode="&#x202f;" horiz-adv-x="185" />
<glyph unicode="&#x2039;" horiz-adv-x="300" d="M32 243l2 26l182 193l52 -43l-136 -168l98 -176l-60 -40z" />
<glyph unicode="&#x203a;" horiz-adv-x="301" d="M20 79l136 168l-98 175l60 40l138 -207l-2 -27l-182 -193z" />
<glyph unicode="&#x205f;" horiz-adv-x="231" />
<glyph unicode="&#x20ac;" horiz-adv-x="632" d="M37 252l11 69h74l4 29q1 12 5 31h-75l10 69h79q34 130 107 191t205 61q94 0 170 -23l-18 -94q-68 12 -162 7q-69 -4 -108.5 -37.5t-60.5 -104.5h236l-18 -69h-234l-7 -40q-1 -4 -2 -10.5t-1 -9.5h212l-18 -69h-199q-1 -78 26.5 -115t91.5 -40q97 -5 185 11l4 -95 q-77 -25 -183 -25q-132 0 -193.5 65.5t-59.5 198.5h-81z" />
<glyph unicode="&#x2122;" horiz-adv-x="968" d="M105 627l9 69h333l-8 -69h-125l-44 -311h-85l44 311h-124zM437 316l63 351q3 16 9.5 22.5t21.5 6.5h82q29 0 31 -29l32 -191q1 -9 2.5 -28t2.5 -28h10q7 30 17 55l85 197q10 24 34 24h85q15 0 23 -9.5t6 -24.5l-34 -346h-78l30 315h-11l-103 -239q-10 -25 -35 -25h-56 q-30 0 -32 29l-39 235h-12l-56 -315h-78z" />
<glyph unicode="&#x25fc;" horiz-adv-x="490" d="M0 0v490h490v-490h-490z" />
</font>
</defs>
</svg>
