<?xml version="1.0" encoding="utf-8"?>
<!-- Generator: Adobe Illustrator 16.0.0, SVG Export Plug-In . SVG Version: 6.00 Build 0)  -->
<!DOCTYPE svg PUBLIC "-//W3C//DTD SVG 1.1//EN" "http://www.w3.org/Graphics/SVG/1.1/DTD/svg11.dtd">
<svg version="1.1" id="Слой_1" xmlns="http://www.w3.org/2000/svg" xmlns:xlink="http://www.w3.org/1999/xlink" x="0px" y="0px"
	 width="53.257px" height="48.863px" viewBox="0 0 53.257 48.863" style="enable-background:new 0 0 53.257 48.863;"
	 xml:space="preserve">
<path d="M2.401,8.663c4-7.583,16.054-10.413,20.313-7.594C25.646,3.01,2.92,5.346,3.595,7.709
	c1.223,4.288,16.716-9.542,18.386-7.044S1.49,7.549,2.071,11.689c0.381,2.72,18.539-12.62,22.145-9.609
	C26.178,3.719,2.63,9.364,2.059,15.497C1.779,18.499,26.084-0.942,26.235,3.913C26.357,7.848-0.21,14.813,2.055,19.83
	C2.937,21.785,30.901,1.142,27.379,7.179C26.588,8.535,2.681,22.9,2.714,23.601c0.171,3.661,14.505-12.483,30.875-16.625
	c8.717-2.206-8.771-1.229-29.521,21.021C2.825,29.329,37.351,3.811,39.089,4.424C40.153,4.8,3.616,28.213,6.279,31.901
	c1.869,2.588,37.032-31.015,37.369-27.71S4.479,33.483,8.148,34.489c3.669,1.008,36.056-32.855,37.696-29.924
	S6.493,38.474,11.572,38.235S47.091,2.11,47.954,5.387S8.034,39.62,12.676,39.476c4.642-0.146,36.726-37.813,37.976-31.75
	c0.796,3.86-40.8,31.385-36.9,32.994S50.776,5.788,52.153,10.592c0.913,3.187-41.858,33.255-36.513,32.413
	c5.345-0.842,36.199-33.842,36.525-27.008c0.224,4.693-39.74,29.584-35.127,28.792s37.545-29.953,36.178-25.126
	c-1.369,4.827-38.264,28.164-34.664,27.166c3.6-1,33.818-23.674,33.295-22.339c-0.521,1.335-34.032,25.538-31.926,24.329
	S51.98,25.44,50.126,28.24c-1.855,2.8-30.205,20.579-30.205,20.579c-3.349-6.134-5.862-8.034-9.707-11.156
	C1.401,30.507-3.094,19.082,2.401,8.663z"/>
</svg>
